Amatic-Bold.ufo
<glyph name="numbersign" format="1">
  <advance width="882"/>
  <unicode hex="0023"/>
  <outline>
    <contour>
      <point x="353" y="686" type="curve"/>
      <point x="361" y="685"/>
      <point x="370" y="685"/>
      <point x="378" y="685" type="curve" smooth="yes"/>
      <point x="430" y="685"/>
      <point x="483" y="685"/>
      <point x="534" y="691" type="curve"/>
      <point x="549" y="777"/>
      <point x="566" y="864"/>
      <point x="567" y="952" type="curve"/>
      <point x="536" y="959"/>
      <point x="503" y="960"/>
      <point x="471" y="960" type="curve" smooth="yes"/>
      <point x="442" y="960"/>
      <point x="413" y="959"/>
      <point x="385" y="954" type="curve"/>
      <point x="361" y="867"/>
      <point x="356" y="776"/>
    </contour>
    <contour>
      <point x="747" y="637" type="curve"/>
      <point x="748" y="637" type="line"/>
      <point x="747" y="595"/>
      <point x="704" y="586"/>
      <point x="670" y="586" type="curve" smooth="yes"/>
      <point x="664" y="586" type="line"/>
      <point x="634" y="587" type="line"/>
      <point x="616" y="378"/>
      <point x="578" y="171"/>
      <point x="578" y="-39" type="curve"/>
      <point x="543" y="-81" type="line"/>
      <point x="514" y="-81"/>
      <point x="472" y="-74"/>
      <point x="472" y="-37" type="curve" smooth="yes"/>
      <point x="472" y="171"/>
      <point x="530" y="374"/>
      <point x="537" y="581" type="curve"/>
      <point x="490" y="585"/>
      <point x="442" y="585"/>
      <point x="395" y="585" type="curve" smooth="yes"/>
      <point x="345" y="582" type="line"/>
      <point x="333" y="488"/>
      <point x="320" y="-80"/>
      <point x="234" y="-80" type="curve" smooth="yes"/>
      <point x="209" y="-80"/>
      <point x="176" y="-65"/>
      <point x="176" y="-36" type="curve" smooth="yes"/>
      <point x="176" y="170"/>
      <point x="208" y="375"/>
      <point x="247" y="576" type="curve"/>
      <point x="229" y="574"/>
      <point x="208" y="571"/>
      <point x="187" y="571" type="curve" smooth="yes"/>
      <point x="143" y="571"/>
      <point x="102" y="583"/>
      <point x="102" y="637" type="curve" smooth="yes"/>
      <point x="102" y="676"/>
      <point x="152" y="683"/>
      <point x="198" y="683" type="curve" smooth="yes"/>
      <point x="223" y="683"/>
      <point x="247" y="681"/>
      <point x="260" y="681" type="curve"/>
      <point x="275" y="769"/>
      <point x="284" y="859"/>
      <point x="291" y="948" type="curve"/>
      <point x="278" y="947"/>
      <point x="259" y="945"/>
      <point x="240" y="945" type="curve" smooth="yes"/>
      <point x="194" y="945"/>
      <point x="143" y="955"/>
      <point x="143" y="1004" type="curve" smooth="yes"/>
      <point x="143" y="1014" type="line"/>
      <point x="173" y="1047" type="line"/>
      <point x="194" y="1047"/>
      <point x="215" y="1046"/>
      <point x="236" y="1046" type="curve" smooth="yes"/>
      <point x="257" y="1046"/>
      <point x="278" y="1047"/>
      <point x="299" y="1049" type="curve"/>
      <point x="316" y="1185"/>
      <point x="344" y="1320"/>
      <point x="344" y="1457" type="curve" smooth="yes"/>
      <point x="344" y="1468"/>
      <point x="343" y="1481"/>
      <point x="343" y="1494" type="curve" smooth="yes"/>
      <point x="343" y="1530"/>
      <point x="349" y="1567"/>
      <point x="396" y="1567" type="curve" smooth="yes"/>
      <point x="411" y="1567" type="line"/>
      <point x="434" y="1520" type="line"/>
      <point x="434" y="1365"/>
      <point x="399" y="1213"/>
      <point x="397" y="1058" type="curve"/>
      <point x="415" y="1054"/>
      <point x="433" y="1054"/>
      <point x="452" y="1054" type="curve" smooth="yes"/>
      <point x="488" y="1054" type="line" smooth="yes"/>
      <point x="518" y="1054"/>
      <point x="547" y="1055"/>
      <point x="576" y="1062" type="curve"/>
      <point x="608" y="1219"/>
      <point x="625" y="1377"/>
      <point x="650" y="1535" type="curve"/>
      <point x="663" y="1552"/>
      <point x="681" y="1566"/>
      <point x="703" y="1566" type="curve" smooth="yes"/>
      <point x="723" y="1566"/>
      <point x="751" y="1546"/>
      <point x="751" y="1525" type="curve" smooth="yes"/>
      <point x="751" y="1369"/>
      <point x="682" y="1223"/>
      <point x="678" y="1067" type="curve"/>
      <point x="744" y="1067" type="line"/>
      <point x="787" y="1020" type="line"/>
      <point x="780" y="991"/>
      <point x="769" y="959"/>
      <point x="733" y="959" type="curve" smooth="yes"/>
      <point x="666" y="962" type="line"/>
      <point x="647" y="875"/>
      <point x="642" y="786"/>
      <point x="641" y="698" type="curve"/>
      <point x="648" y="698"/>
      <point x="655" y="699"/>
      <point x="662" y="699" type="curve" smooth="yes"/>
      <point x="703" y="699"/>
      <point x="747" y="687"/>
    </contour>
  </outline>
</glyph>
<glyph name="percent" format="1">
  <advance width="1296"/>
  <unicode hex="0025"/>
  <outline>
    <contour>
      <point x="556" y="1140" type="line"/>
      <point x="555" y="1141" type="line"/>
      <point x="503" y="999"/>
      <point x="618" y="700"/>
      <point x="353" y="700" type="curve" smooth="yes"/>
      <point x="159" y="700"/>
      <point x="158" y="1025"/>
      <point x="158" y="1163" type="curve" smooth="yes"/>
      <point x="158" y="1255"/>
      <point x="191" y="1553"/>
      <point x="327" y="1553" type="curve" smooth="yes"/>
      <point x="532" y="1553"/>
      <point x="556" y="1300"/>
      <point x="556" y="1147" type="curve" smooth="yes"/>
    </contour>
    <contour>
      <point x="923" y="2" type="curve" smooth="yes"/>
      <point x="787" y="2"/>
      <point x="755" y="270"/>
      <point x="755" y="370" type="curve" smooth="yes"/>
      <point x="755" y="504"/>
      <point x="756" y="838"/>
      <point x="950" y="838" type="curve" smooth="yes"/>
      <point x="1129" y="838"/>
      <point x="1152" y="612"/>
      <point x="1152" y="478" type="curve" smooth="yes"/>
      <point x="1152" y="378" type="line" smooth="yes"/>
      <point x="1152" y="229"/>
      <point x="1115" y="2"/>
    </contour>
    <contour>
      <point x="769" y="1438" type="curve"/>
      <point x="770" y="1437" type="line"/>
      <point x="771" y="1467"/>
      <point x="786" y="1536"/>
      <point x="827" y="1536" type="curve" smooth="yes"/>
      <point x="855" y="1536"/>
      <point x="881" y="1517"/>
      <point x="881" y="1487" type="curve" smooth="yes"/>
      <point x="881" y="1294"/>
      <point x="664" y="558"/>
      <point x="609" y="308" type="curve" smooth="yes"/>
      <point x="594" y="241"/>
      <point x="566" y="-4"/>
      <point x="479" y="-8" type="curve"/>
      <point x="458" y="4"/>
      <point x="440" y="27"/>
      <point x="440" y="52" type="curve" smooth="yes"/>
      <point x="440" y="272"/>
      <point x="696" y="1167"/>
    </contour>
    <contour>
      <point x="334" y="1449" type="curve" smooth="yes"/>
      <point x="296" y="1449"/>
      <point x="257" y="1210"/>
      <point x="257" y="1165" type="curve" smooth="yes"/>
      <point x="257" y="1102"/>
      <point x="264" y="800"/>
      <point x="350" y="800" type="curve" smooth="yes"/>
      <point x="458" y="800"/>
      <point x="462" y="1017"/>
      <point x="462" y="1092" type="curve" smooth="yes"/>
      <point x="462" y="1179"/>
      <point x="462" y="1449"/>
    </contour>
    <contour>
      <point x="1052" y="467" type="line" smooth="yes"/>
      <point x="1052" y="535"/>
      <point x="1040" y="733"/>
      <point x="944" y="733" type="curve" smooth="yes"/>
      <point x="860" y="733"/>
      <point x="853" y="428"/>
      <point x="853" y="366" type="curve" smooth="yes"/>
      <point x="853" y="329"/>
      <point x="888" y="116"/>
      <point x="928" y="116" type="curve" smooth="yes"/>
      <point x="1047" y="116"/>
      <point x="1052" y="303"/>
      <point x="1052" y="386" type="curve" smooth="yes"/>
    </contour>
  </outline>
</glyph>
<glyph name="ampersand" format="1">
  <advance width="990"/>
  <unicode hex="0026"/>
  <outline>
    <contour>
      <point x="305" y="789" type="curve"/>
      <point x="230" y="671"/>
      <point x="197" y="528"/>
      <point x="197" y="389" type="curve" smooth="yes"/>
      <point x="197" y="262"/>
      <point x="251" y="103"/>
      <point x="403" y="103" type="curve" smooth="yes"/>
      <point x="444" y="103"/>
      <point x="524" y="128"/>
      <point x="553" y="158" type="curve"/>
      <point x="422" y="347"/>
      <point x="345" y="546"/>
    </contour>
    <contour>
      <point x="857" y="722" type="curve"/>
      <point x="885" y="716"/>
      <point x="915" y="701"/>
      <point x="915" y="668" type="curve" smooth="yes"/>
      <point x="915" y="621"/>
      <point x="846" y="612"/>
      <point x="808" y="612" type="curve" smooth="yes"/>
      <point x="806" y="612"/>
      <point x="804" y="613"/>
      <point x="802" y="613" type="curve" smooth="yes"/>
      <point x="751" y="613" type="line"/>
      <point x="751" y="516"/>
      <point x="750" y="285"/>
      <point x="667" y="175" type="curve"/>
      <point x="701" y="140"/>
      <point x="747" y="112"/>
      <point x="797" y="112" type="curve" smooth="yes"/>
      <point x="825" y="112"/>
      <point x="852" y="118"/>
      <point x="880" y="118" type="curve"/>
      <point x="918" y="87" type="line"/>
      <point x="918" y="26"/>
      <point x="863" y="19"/>
      <point x="814" y="19" type="curve" smooth="yes"/>
      <point x="740" y="19"/>
      <point x="675" y="53"/>
      <point x="616" y="96" type="curve"/>
      <point x="544" y="47"/>
      <point x="473" y="18"/>
      <point x="385" y="18" type="curve" smooth="yes"/>
      <point x="219" y="18"/>
      <point x="102" y="202"/>
      <point x="102" y="354" type="curve" smooth="yes"/>
      <point x="102" y="600"/>
      <point x="175" y="733"/>
      <point x="284" y="945" type="curve"/>
      <point x="283" y="1039"/>
      <point x="270" y="1132"/>
      <point x="270" y="1226" type="curve" smooth="yes"/>
      <point x="270" y="1396" type="line" smooth="yes"/>
      <point x="270" y="1502"/>
      <point x="329" y="1544"/>
      <point x="398" y="1544" type="curve" smooth="yes"/>
      <point x="494" y="1544"/>
      <point x="608" y="1463"/>
      <point x="608" y="1360" type="curve" smooth="yes"/>
      <point x="608" y="1188"/>
      <point x="546" y="1065"/>
      <point x="442" y="944" type="curve"/>
      <point x="427" y="917"/>
      <point x="390" y="876"/>
      <point x="390" y="846" type="curve" smooth="yes"/>
      <point x="390" y="734"/>
      <point x="519" y="318"/>
      <point x="595" y="238" type="curve"/>
      <point x="645" y="352"/>
      <point x="659" y="477"/>
      <point x="659" y="600" type="curve" smooth="yes"/>
      <point x="659" y="609" type="line"/>
      <point x="636" y="609"/>
      <point x="634" y="624"/>
      <point x="625" y="644" type="curve"/>
      <point x="625" y="696" type="line"/>
      <point x="681" y="696"/>
      <point x="806" y="705"/>
    </contour>
    <contour>
      <point x="363" y="1291" type="line" smooth="yes"/>
      <point x="363" y="1199"/>
      <point x="366" y="1108"/>
      <point x="366" y="1016" type="curve" smooth="yes"/>
      <point x="366" y="993" type="line"/>
      <point x="424" y="1065"/>
      <point x="516" y="1213"/>
      <point x="516" y="1291" type="curve" smooth="yes"/>
      <point x="516" y="1334"/>
      <point x="466" y="1450"/>
      <point x="415" y="1450" type="curve" smooth="yes"/>
      <point x="397" y="1450"/>
      <point x="379" y="1436"/>
      <point x="363" y="1400" type="curve"/>
    </contour>
  </outline>
</glyph>
<glyph name="quotesingle" format="1">
  <advance width="558"/>
  <unicode hex="0027"/>
  <outline>
    <contour>
      <point x="251" y="1193" type="line" smooth="yes"/>
      <point x="238" y="1193"/>
      <point x="222" y="1435"/>
      <point x="222" y="1531" type="curve" smooth="yes"/>
      <point x="222" y="1559"/>
      <point x="255" y="1578"/>
      <point x="283" y="1578" type="curve" smooth="yes"/>
      <point x="313" y="1578"/>
      <point x="328" y="1556"/>
      <point x="337" y="1531" type="curve"/>
      <point x="332" y="1525" type="line" smooth="yes"/>
      <point x="332" y="1521"/>
      <point x="333" y="1514"/>
      <point x="333" y="1511" type="curve" smooth="yes"/>
      <point x="333" y="1407"/>
      <point x="298" y="1193"/>
      <point x="258" y="1193" type="curve" smooth="yes"/>
    </contour>
  </outline>
</glyph>
<glyph name="parenright" format="1">
  <advance width="810"/>
  <unicode hex="0029"/>
  <outline>
    <contour>
      <point x="617" y="817" type="curve" smooth="yes"/>
      <point x="617" y="815" type="line" smooth="yes"/>
      <point x="616" y="651"/>
      <point x="478" y="-303"/>
      <point x="308" y="-303" type="curve" smooth="yes"/>
      <point x="281" y="-303"/>
      <point x="254" y="-284"/>
      <point x="254" y="-255" type="curve" smooth="yes"/>
      <point x="254" y="-217"/>
      <point x="321" y="-112"/>
      <point x="340" y="-71" type="curve" smooth="yes"/>
      <point x="443" y="158"/>
      <point x="514" y="564"/>
      <point x="514" y="816" type="curve" smooth="yes"/>
      <point x="514" y="993"/>
      <point x="490" y="1253"/>
      <point x="423" y="1416" type="curve" smooth="yes"/>
      <point x="397" y="1480"/>
      <point x="349" y="1538"/>
      <point x="349" y="1610" type="curve" smooth="yes"/>
      <point x="349" y="1621" type="line"/>
      <point x="386" y="1650" type="line"/>
      <point x="552" y="1650"/>
      <point x="615" y="954"/>
    </contour>
  </outline>
</glyph>
<glyph name="period" format="1">
  <advance width="612"/>
  <unicode hex="002E"/>
  <outline>
    <contour>
      <point x="222" y="41" type="curve" smooth="yes"/>
      <point x="222" y="82"/>
      <point x="258" y="120"/>
      <point x="299" y="120" type="curve" smooth="yes"/>
      <point x="338" y="120"/>
      <point x="372" y="81"/>
      <point x="372" y="43" type="curve" smooth="yes"/>
      <point x="372" y="-4"/>
      <point x="336" y="-32"/>
      <point x="291" y="-32" type="curve" smooth="yes"/>
      <point x="253" y="-32"/>
      <point x="222" y="4"/>
    </contour>
  </outline>
</glyph>
<glyph name="zero" format="1">
  <advance width="828"/>
  <unicode hex="0030"/>
  <outline>
    <contour>
      <point x="176" y="1222" type="line" smooth="yes"/>
      <point x="176" y="1408"/>
      <point x="209" y="1563"/>
      <point x="350" y="1563" type="curve" smooth="yes"/>
      <point x="640" y="1563"/>
      <point x="644" y="798"/>
      <point x="644" y="521" type="curve" smooth="yes"/>
      <point x="644" y="373"/>
      <point x="636" y="7"/>
      <point x="424" y="7" type="curve" smooth="yes"/>
      <point x="185" y="7"/>
      <point x="176" y="841"/>
      <point x="176" y="1158" type="curve" smooth="yes"/>
    </contour>
    <contour>
      <point x="549" y="568" type="curve" smooth="yes"/>
      <point x="549" y="848"/>
      <point x="527" y="1490"/>
      <point x="327" y="1518" type="curve"/>
      <point x="282" y="1481"/>
      <point x="274" y="1451"/>
      <point x="274" y="1395" type="curve" smooth="yes"/>
      <point x="274" y="1260"/>
      <point x="282" y="1125"/>
      <point x="282" y="990" type="curve" smooth="yes"/>
      <point x="282" y="923"/>
      <point x="303" y="857"/>
      <point x="303" y="790" type="curve" smooth="yes"/>
      <point x="303" y="685"/>
      <point x="311" y="100"/>
      <point x="443" y="100" type="curve" smooth="yes"/>
      <point x="530" y="100"/>
      <point x="549" y="497"/>
    </contour>
  </outline>
</glyph>
<glyph name="four" format="1">
  <advance width="720"/>
  <unicode hex="0034"/>
  <outline>
    <contour>
      <point x="381" y="1160" type="curve" smooth="yes"/>
      <point x="381" y="1191"/>
      <point x="415" y="1206"/>
      <point x="434" y="1206" type="curve"/>
      <point x="466" y="1170" type="line"/>
      <point x="466" y="1072" type="line" smooth="yes"/>
      <point x="466" y="913"/>
      <point x="466" y="753"/>
      <point x="462" y="596" type="curve"/>
      <point x="477" y="597"/>
      <point x="499" y="601"/>
      <point x="521" y="601" type="curve" smooth="yes"/>
      <point x="552" y="601"/>
      <point x="582" y="593"/>
      <point x="582" y="557" type="curve" smooth="yes"/>
      <point x="582" y="513"/>
      <point x="536" y="507"/>
      <point x="500" y="507" type="curve" smooth="yes"/>
      <point x="485" y="507"/>
      <point x="467" y="505"/>
      <point x="467" y="489" type="curve" smooth="yes"/>
      <point x="467" y="436"/>
      <point x="473" y="190"/>
      <point x="488" y="155" type="curve"/>
      <point x="486" y="143"/>
      <point x="484" y="130"/>
      <point x="484" y="117" type="curve" smooth="yes"/>
      <point x="484" y="103"/>
      <point x="485" y="89"/>
      <point x="493" y="76" type="curve"/>
      <point x="493" y="39" type="line" smooth="yes"/>
      <point x="493" y="9"/>
      <point x="483" y="-38"/>
      <point x="445" y="-38" type="curve" smooth="yes"/>
      <point x="399" y="-38"/>
      <point x="380" y="23"/>
      <point x="380" y="59" type="curve" smooth="yes"/>
      <point x="380" y="66" type="line"/>
      <point x="387" y="90"/>
      <point x="391" y="115"/>
      <point x="391" y="140" type="curve" smooth="yes"/>
      <point x="391" y="207"/>
      <point x="376" y="272"/>
      <point x="376" y="339" type="curve" smooth="yes"/>
      <point x="376" y="369"/>
      <point x="378" y="398"/>
      <point x="378" y="428" type="curve" smooth="yes"/>
      <point x="378" y="449"/>
      <point x="377" y="470"/>
      <point x="374" y="491" type="curve"/>
      <point x="337" y="489"/>
      <point x="299" y="480"/>
      <point x="262" y="480" type="curve"/>
      <point x="262" y="479" type="line"/>
      <point x="231" y="479"/>
      <point x="206" y="493"/>
      <point x="182" y="512" type="curve"/>
      <point x="182" y="539"/>
      <point x="184" y="565"/>
      <point x="191" y="591" type="curve"/>
      <point x="184" y="628"/>
      <point x="182" y="666"/>
      <point x="182" y="706" type="curve" smooth="yes"/>
      <point x="182" y="844"/>
      <point x="213" y="991"/>
      <point x="213" y="1124" type="curve" smooth="yes"/>
      <point x="213" y="1503" type="line" smooth="yes"/>
      <point x="213" y="1525"/>
      <point x="215" y="1543"/>
      <point x="252" y="1543" type="curve" smooth="yes"/>
      <point x="281" y="1543"/>
      <point x="313" y="1524"/>
      <point x="313" y="1492" type="curve" smooth="yes"/>
      <point x="313" y="1440"/>
      <point x="304" y="1386"/>
      <point x="304" y="1333" type="curve" smooth="yes"/>
      <point x="304" y="1321"/>
      <point x="303" y="1308"/>
      <point x="303" y="1296" type="curve" smooth="yes"/>
      <point x="303" y="1284"/>
      <point x="304" y="1271"/>
      <point x="307" y="1259" type="curve" smooth="yes"/>
      <point x="307" y="1252" type="line"/>
      <point x="311" y="1216"/>
      <point x="313" y="1179"/>
      <point x="313" y="1143" type="curve" smooth="yes"/>
      <point x="313" y="969"/>
      <point x="284" y="796"/>
      <point x="284" y="622" type="curve" smooth="yes"/>
      <point x="284" y="607"/>
      <point x="285" y="591"/>
      <point x="287" y="576" type="curve"/>
      <point x="312" y="577"/>
      <point x="337" y="581"/>
      <point x="362" y="587" type="curve"/>
      <point x="363" y="780"/>
      <point x="381" y="983"/>
    </contour>
  </outline>
</glyph>
<glyph name="five" format="1">
  <advance width="792"/>
  <unicode hex="0035"/>
  <outline>
    <contour>
      <point x="197" y="1008" type="curve" smooth="yes"/>
      <point x="197" y="1043"/>
      <point x="208" y="1077"/>
      <point x="208" y="1112" type="curve" smooth="yes"/>
      <point x="208" y="1256"/>
      <point x="180" y="1398"/>
      <point x="158" y="1540" type="curve"/>
      <point x="193" y="1576" type="line"/>
      <point x="360" y="1576" type="line" smooth="yes"/>
      <point x="397" y="1576"/>
      <point x="445" y="1572"/>
      <point x="445" y="1524" type="curve" smooth="yes"/>
      <point x="445" y="1513" type="line"/>
      <point x="407" y="1482" type="line"/>
      <point x="356" y="1482" type="line"/>
      <point x="356" y="1488" type="line"/>
      <point x="269" y="1488" type="line"/>
      <point x="275" y="1325"/>
      <point x="293" y="1164"/>
      <point x="309" y="1002" type="curve"/>
      <point x="362" y="996"/>
      <point x="430" y="996"/>
      <point x="475" y="965" type="curve" smooth="yes"/>
      <point x="577" y="895"/>
      <point x="603" y="553"/>
      <point x="603" y="434" type="curve" smooth="yes"/>
      <point x="603" y="234"/>
      <point x="603" y="95"/>
      <point x="430" y="-36" type="curve"/>
      <point x="420" y="-36"/>
      <point x="408" y="-37"/>
      <point x="395" y="-37" type="curve" smooth="yes"/>
      <point x="346" y="-37"/>
      <point x="283" y="-31"/>
      <point x="283" y="21" type="curve" smooth="yes"/>
      <point x="283" y="54"/>
      <point x="318" y="67"/>
      <point x="346" y="67" type="curve" smooth="yes"/>
      <point x="365" y="67"/>
      <point x="384" y="61"/>
      <point x="399" y="50" type="curve"/>
      <point x="473" y="75"/>
      <point x="505" y="259"/>
      <point x="505" y="328" type="curve" smooth="yes"/>
      <point x="505" y="585"/>
      <point x="501" y="891"/>
      <point x="272" y="891" type="curve" smooth="yes"/>
      <point x="204" y="891"/>
      <point x="197" y="955"/>
    </contour>
  </outline>
</glyph>
<glyph name="seven" format="1">
  <advance width="684"/>
  <unicode hex="0037"/>
  <outline>
    <contour>
      <point x="297" y="119" type="curve" smooth="yes"/>
      <point x="298" y="114"/>
      <point x="298" y="108"/>
      <point x="298" y="101" type="curve" smooth="yes"/>
      <point x="298" y="55"/>
      <point x="268" y="-11"/>
      <point x="218" y="-11" type="curve"/>
      <point x="179" y="24" type="line"/>
      <point x="179" y="80"/>
      <point x="202" y="129"/>
      <point x="216" y="182" type="curve" smooth="yes"/>
      <point x="323" y="587"/>
      <point x="391" y="1070"/>
      <point x="400" y="1494" type="curve"/>
      <point x="384" y="1496"/>
      <point x="368" y="1498"/>
      <point x="352" y="1498" type="curve" smooth="yes"/>
      <point x="309" y="1498"/>
      <point x="265" y="1493"/>
      <point x="222" y="1489" type="curve"/>
      <point x="200" y="1499"/>
      <point x="174" y="1522"/>
      <point x="174" y="1549" type="curve" smooth="yes"/>
      <point x="174" y="1580"/>
      <point x="314" y="1582"/>
      <point x="362" y="1582" type="curve" smooth="yes"/>
      <point x="400" y="1582" type="line" smooth="yes"/>
      <point x="446" y="1582"/>
      <point x="490" y="1578"/>
      <point x="504" y="1523" type="curve"/>
      <point x="432" y="1169"/>
      <point x="412" y="448"/>
    </contour>
  </outline>
</glyph>
<glyph name="eight" format="1">
  <advance width="738"/>
  <unicode hex="0038"/>
  <outline>
    <contour>
      <point x="307" y="1515" type="line"/>
      <point x="286" y="1515" type="line"/>
      <point x="286" y="1516" type="line"/>
      <point x="261" y="1488"/>
      <point x="258" y="1449"/>
      <point x="258" y="1413" type="curve" smooth="yes"/>
      <point x="258" y="1317"/>
      <point x="304" y="1101"/>
      <point x="335" y="1007" type="curve"/>
      <point x="363" y="1106"/>
      <point x="380" y="1209"/>
      <point x="380" y="1312" type="curve" smooth="yes"/>
      <point x="380" y="1342"/>
      <point x="364" y="1516"/>
      <point x="329" y="1516" type="curve" smooth="yes"/>
    </contour>
    <contour>
      <point x="298" y="190" type="curve" smooth="yes"/>
      <point x="298" y="188" type="line" smooth="yes"/>
      <point x="298" y="151"/>
      <point x="308" y="115"/>
      <point x="324" y="81" type="curve"/>
      <point x="324" y="71" type="line" smooth="yes"/>
      <point x="326" y="50"/>
      <point x="340" y="6"/>
      <point x="367" y="6" type="curve" smooth="yes"/>
      <point x="445" y="6"/>
      <point x="467" y="74"/>
      <point x="467" y="140" type="curve" smooth="yes"/>
      <point x="467" y="348"/>
      <point x="413" y="552"/>
      <point x="356" y="750" type="curve"/>
      <point x="311" y="604"/>
      <point x="298" y="345"/>
    </contour>
    <contour>
      <point x="562" y="90" type="curve" smooth="yes"/>
      <point x="562" y="80"/>
      <point x="560" y="71"/>
      <point x="559" y="61" type="curve" smooth="yes"/>
      <point x="559" y="60" type="line"/>
      <point x="522" y="-24"/>
      <point x="461" y="-82"/>
      <point x="365" y="-82" type="curve" smooth="yes"/>
      <point x="235" y="-82"/>
      <point x="203" y="98"/>
      <point x="203" y="198" type="curve" smooth="yes"/>
      <point x="203" y="421"/>
      <point x="299" y="672"/>
      <point x="299" y="863" type="curve" smooth="yes"/>
      <point x="299" y="1040"/>
      <point x="158" y="1225"/>
      <point x="158" y="1421" type="curve" smooth="yes"/>
      <point x="158" y="1510"/>
      <point x="197" y="1607"/>
      <point x="300" y="1607" type="curve" smooth="yes"/>
      <point x="343" y="1607" type="line"/>
      <point x="468" y="1530"/>
      <point x="471" y="1466"/>
      <point x="471" y="1313" type="curve" smooth="yes"/>
      <point x="471" y="1160"/>
      <point x="433" y="1010"/>
      <point x="399" y="862" type="curve"/>
      <point x="490" y="651"/>
      <point x="561" y="349"/>
      <point x="561" y="119" type="curve" smooth="yes"/>
      <point x="561" y="109"/>
      <point x="562" y="99"/>
    </contour>
  </outline>
</glyph>
<glyph name="nine" format="1">
  <advance width="756"/>
  <unicode hex="0039"/>
  <outline>
    <contour>
      <point x="453" y="1009" type="curve"/>
      <point x="461" y="1148"/>
      <point x="462" y="1288"/>
      <point x="462" y="1427" type="curve" smooth="yes"/>
      <point x="462" y="1480"/>
      <point x="453" y="1527"/>
      <point x="389" y="1527" type="curve" smooth="yes"/>
      <point x="308" y="1527"/>
      <point x="290" y="1306"/>
      <point x="290" y="1247" type="curve" smooth="yes"/>
      <point x="290" y="1085"/>
      <point x="350" y="1067"/>
    </contour>
    <contour>
      <point x="536" y="237" type="curve" smooth="yes"/>
      <point x="535" y="188"/>
      <point x="522" y="139"/>
      <point x="522" y="90" type="curve" smooth="yes"/>
      <point x="522" y="78"/>
      <point x="523" y="64"/>
      <point x="523" y="49" type="curve" smooth="yes"/>
      <point x="523" y="9"/>
      <point x="505" y="-34"/>
      <point x="455" y="-34" type="curve"/>
      <point x="423" y="4" type="line"/>
      <point x="453" y="94"/>
      <point x="455" y="502"/>
      <point x="455" y="686" type="curve" smooth="yes"/>
      <point x="455" y="772"/>
      <point x="452" y="848"/>
      <point x="451" y="931" type="curve"/>
      <point x="302" y="965"/>
      <point x="190" y="1087"/>
      <point x="190" y="1243" type="curve" smooth="yes"/>
      <point x="190" y="1370"/>
      <point x="217" y="1614"/>
      <point x="388" y="1614" type="curve" smooth="yes"/>
      <point x="529" y="1614"/>
      <point x="560" y="1547"/>
      <point x="560" y="1420" type="curve" smooth="yes"/>
      <point x="560" y="1026"/>
      <point x="536" y="631"/>
    </contour>
  </outline>
</glyph>
<glyph name="semicolon" format="1">
  <advance width="630"/>
  <unicode hex="003B"/>
  <outline>
    <contour>
      <point x="274" y="1025" type="curve" smooth="yes"/>
      <point x="274" y="1065"/>
      <point x="309" y="1104"/>
      <point x="350" y="1104" type="curve" smooth="yes"/>
      <point x="389" y="1104"/>
      <point x="423" y="1065"/>
      <point x="423" y="1027" type="curve" smooth="yes"/>
      <point x="423" y="980"/>
      <point x="387" y="952"/>
      <point x="342" y="952" type="curve" smooth="yes"/>
      <point x="304" y="952"/>
      <point x="274" y="988"/>
    </contour>
    <contour>
      <point x="339" y="359" type="curve" smooth="yes"/>
      <point x="389" y="359"/>
      <point x="410" y="315"/>
      <point x="410" y="251" type="curve" smooth="yes"/>
      <point x="410" y="159"/>
      <point x="318" y="-28"/>
      <point x="228" y="-28" type="curve" smooth="yes"/>
      <point x="212" y="-28"/>
      <point x="198" y="-18"/>
      <point x="198" y="-1" type="curve" smooth="yes"/>
      <point x="198" y="11"/>
      <point x="204" y="28"/>
      <point x="223" y="44" type="curve"/>
      <point x="287" y="138"/>
      <point x="261" y="359"/>
    </contour>
  </outline>
</glyph>
<glyph name="less" format="1">
  <advance width="774"/>
  <unicode hex="003C"/>
  <outline>
    <contour>
      <point x="158" y="698" type="curve"/>
      <point x="160" y="756"/>
      <point x="417" y="1447"/>
      <point x="481" y="1447" type="curve" smooth="yes"/>
      <point x="483" y="1447"/>
      <point x="485" y="1446"/>
      <point x="488" y="1446" type="curve" smooth="yes"/>
      <point x="533" y="1411" type="line"/>
      <point x="506" y="1193"/>
      <point x="275" y="869"/>
      <point x="275" y="702" type="curve" smooth="yes"/>
      <point x="275" y="679"/>
      <point x="549" y="115"/>
      <point x="586" y="49" type="curve"/>
      <point x="612" y="49" type="line"/>
      <point x="610" y="19"/>
      <point x="595" y="-22"/>
      <point x="558" y="-22" type="curve" smooth="yes"/>
      <point x="406" y="-22"/>
      <point x="216" y="577"/>
    </contour>
  </outline>
</glyph>
<glyph name="equal" format="1">
  <advance width="882"/>
  <unicode hex="003D"/>
  <outline>
    <contour>
      <point x="511" y="680" type="line" smooth="yes"/>
      <point x="609" y="680"/>
      <point x="720" y="674"/>
      <point x="720" y="626" type="curve" smooth="yes"/>
      <point x="720" y="597"/>
      <point x="700" y="579"/>
      <point x="672" y="579" type="curve" smooth="yes"/>
      <point x="528" y="579"/>
      <point x="384" y="589"/>
      <point x="240" y="589" type="curve" smooth="yes"/>
      <point x="209" y="589"/>
      <point x="158" y="592"/>
      <point x="158" y="634" type="curve" smooth="yes"/>
      <point x="158" y="662"/>
      <point x="176" y="680"/>
      <point x="204" y="680" type="curve" smooth="yes"/>
    </contour>
    <contour>
      <point x="571" y="872" type="line" smooth="yes"/>
      <point x="640" y="872"/>
      <point x="730" y="866"/>
      <point x="730" y="818" type="curve" smooth="yes"/>
      <point x="730" y="774"/>
      <point x="616" y="764"/>
      <point x="514" y="764" type="curve" smooth="yes"/>
      <point x="435" y="764"/>
      <point x="362" y="770"/>
      <point x="359" y="770" type="curve" smooth="yes"/>
      <point x="341" y="770"/>
      <point x="311" y="767"/>
      <point x="281" y="767" type="curve" smooth="yes"/>
      <point x="222" y="767"/>
      <point x="158" y="776"/>
      <point x="158" y="826" type="curve" smooth="yes"/>
      <point x="158" y="854"/>
      <point x="176" y="872"/>
      <point x="204" y="872" type="curve" smooth="yes"/>
    </contour>
  </outline>
</glyph>
<glyph name="greater" format="1">
  <advance width="774"/>
  <unicode hex="003E"/>
  <outline>
    <contour>
      <point x="482" y="702" type="curve" smooth="yes"/>
      <point x="482" y="908"/>
      <point x="227" y="1202"/>
      <point x="225" y="1411" type="curve"/>
      <point x="280" y="1446" type="line"/>
      <point x="280" y="1444" type="line"/>
      <point x="367" y="1404"/>
      <point x="597" y="788"/>
      <point x="600" y="698" type="curve"/>
      <point x="239" y="-19" type="line"/>
      <point x="226" y="-19"/>
      <point x="214" y="-23"/>
      <point x="201" y="-23" type="curve" smooth="yes"/>
      <point x="180" y="-23"/>
      <point x="158" y="-6"/>
      <point x="158" y="24" type="curve" smooth="yes"/>
      <point x="158" y="116"/>
      <point x="482" y="654"/>
    </contour>
  </outline>
</glyph>
<glyph name="A" format="1">
  <advance width="846"/>
  <unicode hex="0041"/>
  <outline>
    <contour>
      <point x="626" y="0" type="move" name="ogonek"/>
    </contour>
    <contour>
      <point x="527" y="1536" type="move" name="top"/>
    </contour>
    <contour>
      <point x="494" y="1236" type="curve" smooth="yes"/>
      <point x="494" y="1243"/>
      <point x="494" y="1249"/>
      <point x="495" y="1254" type="curve"/>
      <point x="447" y="1204"/>
      <point x="342" y="549"/>
      <point x="338" y="464" type="curve"/>
      <point x="397" y="448"/>
      <point x="459" y="441"/>
      <point x="520" y="441" type="curve" smooth="yes"/>
      <point x="533" y="441"/>
      <point x="550" y="444"/>
      <point x="562" y="447" type="curve"/>
      <point x="552" y="576"/>
      <point x="494" y="1110"/>
    </contour>
    <contour>
      <point x="572" y="1525" type="curve"/>
      <point x="572" y="1370"/>
      <point x="652" y="897"/>
      <point x="652" y="710" type="curve" smooth="yes"/>
      <point x="652" y="521"/>
      <point x="695" y="284"/>
      <point x="695" y="70" type="curve" smooth="yes"/>
      <point x="695" y="24"/>
      <point x="674" y="1"/>
      <point x="627" y="1" type="curve" smooth="yes"/>
      <point x="587" y="1"/>
      <point x="564" y="13"/>
      <point x="564" y="54" type="curve" smooth="yes"/>
      <point x="564" y="321" type="line"/>
      <point x="520" y="351"/>
      <point x="381" y="369"/>
      <point x="325" y="373" type="curve"/>
      <point x="274" y="286"/>
      <point x="282" y="117"/>
      <point x="224" y="23" type="curve"/>
      <point x="192" y="23"/>
      <point x="143" y="26"/>
      <point x="134" y="64" type="curve"/>
      <point x="205" y="167"/>
      <point x="353" y="1543"/>
      <point x="506" y="1543" type="curve" smooth="yes"/>
      <point x="528" y="1543"/>
      <point x="554" y="1539"/>
    </contour>
  </outline>
</glyph>
<glyph name="H" format="1">
  <advance width="810"/>
  <unicode hex="0048"/>
  <outline>
    <contour>
      <point x="387" y="1536" type="move" name="top"/>
    </contour>
    <contour>
      <point x="174" y="1510" type="curve" smooth="yes"/>
      <point x="174" y="1537"/>
      <point x="189" y="1547"/>
      <point x="209" y="1547" type="curve" smooth="yes"/>
      <point x="236" y="1547"/>
      <point x="270" y="1529"/>
      <point x="281" y="1514" type="curve"/>
      <point x="276" y="1462"/>
      <point x="274" y="1411"/>
      <point x="274" y="1360" type="curve" smooth="yes"/>
      <point x="274" y="1220"/>
      <point x="288" y="1079"/>
      <point x="288" y="939" type="curve" smooth="yes"/>
      <point x="288" y="914"/>
      <point x="286" y="888"/>
      <point x="286" y="862" type="curve" smooth="yes"/>
      <point x="286" y="844"/>
      <point x="287" y="827"/>
      <point x="290" y="809" type="curve"/>
      <point x="357" y="811"/>
      <point x="422" y="822"/>
      <point x="489" y="824" type="curve"/>
      <point x="488" y="1048"/>
      <point x="481" y="1272"/>
      <point x="481" y="1496" type="curve" smooth="yes"/>
      <point x="481" y="1550" type="line"/>
      <point x="579" y="1550"/>
      <point x="581" y="1469"/>
      <point x="581" y="1393" type="curve" smooth="yes"/>
      <point x="581" y="943"/>
      <point x="620" y="491"/>
      <point x="620" y="43" type="curve" smooth="yes"/>
      <point x="620" y="10"/>
      <point x="597" y="-31"/>
      <point x="560" y="-31" type="curve" smooth="yes"/>
      <point x="521" y="-31"/>
      <point x="508" y="4"/>
      <point x="508" y="37" type="curve" smooth="yes"/>
      <point x="508" y="278"/>
      <point x="503" y="519"/>
      <point x="490" y="759" type="curve"/>
      <point x="468" y="763"/>
      <point x="445" y="769"/>
      <point x="422" y="769" type="curve" smooth="yes"/>
      <point x="381" y="769"/>
      <point x="339" y="769"/>
      <point x="301" y="753" type="curve"/>
      <point x="302" y="521"/>
      <point x="335" y="291"/>
      <point x="335" y="59" type="curve" smooth="yes"/>
      <point x="335" y="34"/>
      <point x="319" y="5"/>
      <point x="291" y="5" type="curve" smooth="yes"/>
      <point x="176" y="5"/>
      <point x="174" y="1319"/>
    </contour>
  </outline>
</glyph>
<glyph name="L" format="1">
  <advance width="622"/>
  <unicode hex="004C"/>
  <outline>
    <contour>
      <point x="370" y="0" type="move" name="bot"/>
    </contour>
    <contour>
      <point x="237" y="1536" type="move" name="top"/>
    </contour>
    <contour>
      <point x="325" y="115" type="line"/>
      <point x="481" y="115" type="line"/>
      <point x="503" y="100"/>
      <point x="525" y="83"/>
      <point x="525" y="54" type="curve" smooth="yes"/>
      <point x="525" y="25"/>
      <point x="504" y="-4"/>
      <point x="473" y="-4" type="curve" smooth="yes"/>
      <point x="463" y="-4"/>
      <point x="451" y="1"/>
      <point x="442" y="3" type="curve" smooth="yes"/>
      <point x="429" y="0"/>
      <point x="416" y="-1"/>
      <point x="403" y="-1" type="curve" smooth="yes"/>
      <point x="381" y="-1"/>
      <point x="359" y="2"/>
      <point x="337" y="2" type="curve"/>
      <point x="323" y="-15"/>
      <point x="300" y="-23"/>
      <point x="279" y="-23" type="curve" smooth="yes"/>
      <point x="245" y="-23"/>
      <point x="210" y="7"/>
      <point x="210" y="42" type="curve" smooth="yes"/>
      <point x="210" y="73"/>
      <point x="223" y="101"/>
      <point x="223" y="132" type="curve" smooth="yes"/>
      <point x="223" y="598"/>
      <point x="182" y="1063"/>
      <point x="182" y="1529" type="curve" smooth="yes"/>
      <point x="182" y="1556"/>
      <point x="207" y="1571"/>
      <point x="232" y="1571" type="curve" smooth="yes"/>
      <point x="265" y="1571"/>
      <point x="294" y="1546"/>
      <point x="294" y="1512" type="curve" smooth="yes"/>
      <point x="294" y="1266"/>
      <point x="315" y="1019"/>
      <point x="315" y="775" type="curve" smooth="yes"/>
      <point x="315" y="758"/>
      <point x="318" y="742"/>
      <point x="318" y="725" type="curve" smooth="yes"/>
      <point x="318" y="720"/>
      <point x="318" y="715"/>
      <point x="317" y="710" type="curve" smooth="yes"/>
      <point x="317" y="701" type="line"/>
      <point x="325" y="523"/>
      <point x="325" y="345"/>
      <point x="325" y="167" type="curve" smooth="yes"/>
    </contour>
  </outline>
</glyph>
<glyph name="P" format="1">
  <advance width="738"/>
  <unicode hex="0050"/>
  <outline>
    <contour>
      <point x="367" y="1536" type="move" name="top"/>
    </contour>
    <contour>
      <point x="461" y="1158" type="curve" smooth="yes"/>
      <point x="461" y="1159" type="line" smooth="yes"/>
      <point x="461" y="1334"/>
      <point x="418" y="1362"/>
      <point x="281" y="1459" type="curve"/>
      <point x="282" y="1243"/>
      <point x="304" y="1027"/>
      <point x="305" y="811" type="curve"/>
      <point x="409" y="909"/>
      <point x="461" y="1014"/>
    </contour>
    <contour>
      <point x="219" y="789" type="curve" smooth="yes"/>
      <point x="219" y="1059"/>
      <point x="207" y="1327"/>
      <point x="166" y="1520" type="curve"/>
      <point x="184" y="1546"/>
      <point x="213" y="1566"/>
      <point x="245" y="1566" type="curve" smooth="yes"/>
      <point x="456" y="1566"/>
      <point x="566" y="1365"/>
      <point x="566" y="1175" type="curve" smooth="yes"/>
      <point x="566" y="983"/>
      <point x="484" y="805"/>
      <point x="310" y="712" type="curve"/>
      <point x="311" y="499"/>
      <point x="326" y="287"/>
      <point x="326" y="74" type="curve" smooth="yes"/>
      <point x="326" y="30"/>
      <point x="309" y="-11"/>
      <point x="258" y="-11" type="curve" smooth="yes"/>
      <point x="222" y="-11"/>
      <point x="209" y="29"/>
      <point x="209" y="58" type="curve" smooth="yes"/>
      <point x="209" y="260"/>
      <point x="219" y="526"/>
    </contour>
  </outline>
</glyph>
<glyph name="W" format="1">
  <advance width="1026"/>
  <unicode hex="0057"/>
  <outline>
    <contour>
      <point x="507" y="1536" type="move" name="top"/>
    </contour>
    <contour>
      <point x="749" y="43" type="curve" smooth="yes"/>
      <point x="749" y="5"/>
      <point x="731" y="-28"/>
      <point x="688" y="-28" type="curve" smooth="yes"/>
      <point x="599" y="-28"/>
      <point x="501" y="788"/>
      <point x="482" y="893" type="curve"/>
      <point x="442" y="606"/>
      <point x="404" y="318"/>
      <point x="404" y="28" type="curve" smooth="yes"/>
      <point x="404" y="-2"/>
      <point x="374" y="-29"/>
      <point x="345" y="-29" type="curve" smooth="yes"/>
      <point x="273" y="-29"/>
      <point x="270" y="76"/>
      <point x="270" y="127" type="curve" smooth="yes"/>
      <point x="270" y="250"/>
      <point x="110" y="1413"/>
      <point x="78" y="1491" type="curve"/>
      <point x="92" y="1517"/>
      <point x="118" y="1540"/>
      <point x="149" y="1540" type="curve" smooth="yes"/>
      <point x="259" y="1540"/>
      <point x="310" y="645"/>
      <point x="331" y="503" type="curve"/>
      <point x="353" y="694"/>
      <point x="409" y="1115"/>
      <point x="409" y="1286" type="curve" smooth="yes"/>
      <point x="409" y="1325" type="line" smooth="yes"/>
      <point x="409" y="1353"/>
      <point x="434" y="1388"/>
      <point x="463" y="1388" type="curve" smooth="yes"/>
      <point x="502" y="1388"/>
      <point x="536" y="1374"/>
      <point x="536" y="1328" type="curve" smooth="yes"/>
      <point x="536" y="1297" type="line" smooth="yes"/>
      <point x="537" y="1011"/>
      <point x="639" y="740"/>
      <point x="685" y="461" type="curve"/>
      <point x="720" y="809"/>
      <point x="788" y="1155"/>
      <point x="788" y="1506" type="curve" smooth="yes"/>
      <point x="788" y="1561"/>
      <point x="799" y="1592"/>
      <point x="862" y="1592" type="curve" smooth="yes"/>
      <point x="892" y="1592"/>
      <point x="925" y="1569"/>
      <point x="925" y="1536" type="curve" smooth="yes"/>
      <point x="925" y="1519"/>
      <point x="916" y="1501"/>
      <point x="904" y="1489" type="curve"/>
      <point x="904" y="1011"/>
      <point x="749" y="523"/>
    </contour>
  </outline>
</glyph>
<glyph name="Y" format="1">
  <advance width="702"/>
  <unicode hex="0059"/>
  <outline>
    <contour>
      <point x="367" y="1536" type="move" name="top"/>
    </contour>
    <contour>
      <point x="373" y="1006" type="curve"/>
      <point x="389" y="1088"/>
      <point x="399" y="1539"/>
      <point x="497" y="1539" type="curve" smooth="yes"/>
      <point x="511" y="1539"/>
      <point x="551" y="1539"/>
      <point x="551" y="1517" type="curve" smooth="yes"/>
      <point x="551" y="1287"/>
      <point x="453" y="1062"/>
      <point x="453" y="828" type="curve" smooth="yes"/>
      <point x="453" y="804"/>
      <point x="446" y="781"/>
      <point x="447" y="757" type="curve" smooth="yes"/>
      <point x="447" y="726" type="line" smooth="yes"/>
      <point x="447" y="545"/>
      <point x="458" y="364"/>
      <point x="458" y="183" type="curve" smooth="yes"/>
      <point x="458" y="151"/>
      <point x="465" y="119"/>
      <point x="465" y="87" type="curve" smooth="yes"/>
      <point x="465" y="35" type="line" smooth="yes"/>
      <point x="465" y="-2"/>
      <point x="431" y="-25"/>
      <point x="397" y="-25" type="curve" smooth="yes"/>
      <point x="370" y="-25"/>
      <point x="345" y="-3"/>
      <point x="345" y="25" type="curve" smooth="yes"/>
      <point x="345" y="157"/>
      <point x="355" y="289"/>
      <point x="355" y="421" type="curve" smooth="yes"/>
      <point x="355" y="541"/>
      <point x="316" y="656"/>
      <point x="316" y="776" type="curve" smooth="yes"/>
      <point x="316" y="1025"/>
      <point x="158" y="1267"/>
      <point x="158" y="1513" type="curve" smooth="yes"/>
      <point x="158" y="1534"/>
      <point x="189" y="1549"/>
      <point x="210" y="1549" type="curve" smooth="yes"/>
      <point x="283" y="1549"/>
      <point x="348" y="1093"/>
    </contour>
  </outline>
</glyph>
<glyph name="Z" format="1">
  <advance width="702"/>
  <unicode hex="005A"/>
  <outline>
    <contour>
      <point x="397" y="1536" type="move" name="top"/>
    </contour>
    <contour>
      <point x="293" y="85" type="curve"/>
      <point x="316" y="86"/>
      <point x="359" y="93"/>
      <point x="401" y="93" type="curve" smooth="yes"/>
      <point x="456" y="93"/>
      <point x="509" y="81"/>
      <point x="509" y="30" type="curve" smooth="yes"/>
      <point x="509" y="21" type="line"/>
      <point x="477" y="-11" type="line"/>
      <point x="393" y="-11"/>
      <point x="308" y="-19"/>
      <point x="224" y="-19" type="curve" smooth="yes"/>
      <point x="193" y="-19"/>
      <point x="176" y="5"/>
      <point x="166" y="31" type="curve"/>
      <point x="269" y="197"/>
      <point x="399" y="1235"/>
      <point x="413" y="1451" type="curve"/>
      <point x="388" y="1449"/>
      <point x="341" y="1441"/>
      <point x="296" y="1441" type="curve" smooth="yes"/>
      <point x="239" y="1441"/>
      <point x="185" y="1453"/>
      <point x="185" y="1506" type="curve" smooth="yes"/>
      <point x="185" y="1515" type="line"/>
      <point x="213" y="1549" type="line"/>
      <point x="213" y="1550" type="line"/>
      <point x="232" y="1545"/>
      <point x="251" y="1543"/>
      <point x="271" y="1543" type="curve" smooth="yes"/>
      <point x="335" y="1543"/>
      <point x="400" y="1564"/>
      <point x="464" y="1564" type="curve" smooth="yes"/>
      <point x="496" y="1564"/>
      <point x="520" y="1536"/>
      <point x="520" y="1505" type="curve" smooth="yes"/>
      <point x="520" y="1051"/>
      <point x="398" y="494"/>
    </contour>
  </outline>
</glyph>
<glyph name="underscore" format="1">
  <advance width="1098"/>
  <unicode hex="005F"/>
  <outline>
    <contour>
      <point x="1060" y="2" type="curve" smooth="yes"/>
      <point x="1095" y="2"/>
      <point x="1110" y="-16"/>
      <point x="1110" y="-36" type="curve" smooth="yes"/>
      <point x="1110" y="-57"/>
      <point x="1088" y="-82"/>
      <point x="1054" y="-82" type="curve" smooth="yes"/>
      <point x="1024" y="-82"/>
      <point x="993" y="-82"/>
      <point x="965" y="-84" type="curve" smooth="yes"/>
      <point x="754" y="-84"/>
      <point x="544" y="-94"/>
      <point x="333" y="-94" type="curve" smooth="yes"/>
      <point x="289" y="-94"/>
      <point x="254" y="-71"/>
      <point x="254" y="-50" type="curve" smooth="yes"/>
      <point x="254" y="-22"/>
      <point x="276" y="0"/>
      <point x="304" y="0" type="curve" smooth="yes"/>
      <point x="963" y="0" type="line" smooth="yes"/>
      <point x="995" y="0"/>
      <point x="1028" y="2"/>
    </contour>
  </outline>
</glyph>
<glyph name="b" format="1">
  <advance width="702"/>
  <unicode hex="0062"/>
  <outline>
    <contour>
      <point x="367" y="1365" type="move" name="top"/>
    </contour>
    <contour>
      <point x="453" y="705" type="curve"/>
      <point x="542" y="620"/>
      <point x="548" y="475"/>
      <point x="548" y="360" type="curve" smooth="yes"/>
      <point x="548" y="167"/>
      <point x="466" y="-20"/>
      <point x="246" y="-20" type="curve" smooth="yes"/>
      <point x="184" y="-20"/>
      <point x="182" y="42"/>
      <point x="182" y="88" type="curve" smooth="yes"/>
      <point x="182" y="234"/>
      <point x="202" y="378"/>
      <point x="202" y="524" type="curve" smooth="yes"/>
      <point x="202" y="740"/>
      <point x="211" y="957"/>
      <point x="211" y="1173" type="curve" smooth="yes"/>
      <point x="211" y="1208"/>
      <point x="202" y="1244"/>
      <point x="200" y="1279" type="curve" smooth="yes"/>
      <point x="200" y="1290" type="line" smooth="yes"/>
      <point x="200" y="1338"/>
      <point x="209" y="1383"/>
      <point x="267" y="1383" type="curve" smooth="yes"/>
      <point x="462" y="1383"/>
      <point x="536" y="1212"/>
      <point x="536" y="1028" type="curve" smooth="yes"/>
      <point x="536" y="883"/>
      <point x="514" y="791"/>
    </contour>
    <contour>
      <point x="305" y="333" type="curve" smooth="yes"/>
      <point x="305" y="278"/>
      <point x="298" y="231"/>
      <point x="298" y="186" type="curve" smooth="yes"/>
      <point x="298" y="183"/>
      <point x="300" y="179"/>
      <point x="300" y="176" type="curve" smooth="yes"/>
      <point x="300" y="84" type="line"/>
      <point x="399" y="107"/>
      <point x="438" y="217"/>
      <point x="438" y="308" type="curve" smooth="yes"/>
      <point x="438" y="400"/>
      <point x="429" y="619"/>
      <point x="314" y="643" type="curve"/>
      <point x="307" y="540"/>
      <point x="305" y="436"/>
    </contour>
    <contour>
      <point x="311" y="1068" type="curve" smooth="yes"/>
      <point x="311" y="763" type="line"/>
      <point x="413" y="766"/>
      <point x="419" y="939"/>
      <point x="419" y="1012" type="curve" smooth="yes"/>
      <point x="419" y="1076"/>
      <point x="420" y="1278"/>
      <point x="335" y="1288" type="curve"/>
      <point x="316" y="1247"/>
      <point x="311" y="1128"/>
    </contour>
  </outline>
</glyph>
<glyph name="c" format="1">
  <advance width="774"/>
  <unicode hex="0063"/>
  <outline>
    <contour>
      <point x="440" y="0" type="move" name="bot"/>
    </contour>
    <contour>
      <point x="467" y="1365" type="move" name="top"/>
    </contour>
    <contour>
      <point x="524" y="1364" type="curve" smooth="yes"/>
      <point x="569" y="1364"/>
      <point x="587" y="1338"/>
      <point x="587" y="1312" type="curve" smooth="yes"/>
      <point x="587" y="1286"/>
      <point x="569" y="1260"/>
      <point x="543" y="1258" type="curve" smooth="yes"/>
      <point x="447" y="1258" type="line" smooth="yes"/>
      <point x="327" y="1258"/>
      <point x="305" y="913"/>
      <point x="305" y="827" type="curve" smooth="yes"/>
      <point x="305" y="817" type="line" smooth="yes"/>
      <point x="305" y="685"/>
      <point x="296" y="554"/>
      <point x="296" y="422" type="curve" smooth="yes"/>
      <point x="296" y="286"/>
      <point x="308" y="79"/>
      <point x="490" y="79" type="curve" smooth="yes"/>
      <point x="506" y="79"/>
      <point x="522" y="86"/>
      <point x="534" y="97" type="curve"/>
      <point x="562" y="97"/>
      <point x="596" y="85"/>
      <point x="596" y="52" type="curve" smooth="yes"/>
      <point x="596" y="-9"/>
      <point x="544" y="-29"/>
      <point x="483" y="-29" type="curve" smooth="yes"/>
      <point x="418" y="-29"/>
      <point x="342" y="-6"/>
      <point x="311" y="14" type="curve" smooth="yes"/>
      <point x="183" y="97"/>
      <point x="175" y="359"/>
      <point x="175" y="495" type="curve" smooth="yes"/>
      <point x="175" y="527"/>
      <point x="174" y="569"/>
      <point x="174" y="615" type="curve" smooth="yes"/>
      <point x="174" y="664" type="line" smooth="yes"/>
      <point x="174" y="1005"/>
      <point x="182" y="1364"/>
    </contour>
  </outline>
</glyph>
<glyph name="e" format="1">
  <advance width="720"/>
  <unicode hex="0065"/>
  <outline>
    <contour>
      <point x="347" y="0" type="move" name="bot"/>
    </contour>
    <contour>
      <point x="426" y="0" type="move" name="ogonek"/>
    </contour>
    <contour>
      <point x="387" y="1365" type="move" name="top"/>
    </contour>
    <contour>
      <point x="524" y="1261" type="curve" smooth="yes"/>
      <point x="524" y="1229"/>
      <point x="491" y="1207"/>
      <point x="464" y="1197" type="curve"/>
      <point x="414" y="1214"/>
      <point x="362" y="1230"/>
      <point x="309" y="1236" type="curve"/>
      <point x="311" y="1207"/>
      <point x="312" y="1177"/>
      <point x="312" y="1148" type="curve" smooth="yes"/>
      <point x="312" y="1050"/>
      <point x="303" y="952"/>
      <point x="303" y="854" type="curve" smooth="yes"/>
      <point x="303" y="844"/>
      <point x="307" y="832"/>
      <point x="309" y="822" type="curve"/>
      <point x="326" y="822"/>
      <point x="354" y="825"/>
      <point x="382" y="825" type="curve" smooth="yes"/>
      <point x="431" y="825"/>
      <point x="481" y="816"/>
      <point x="481" y="769" type="curve" smooth="yes"/>
      <point x="481" y="742"/>
      <point x="457" y="714"/>
      <point x="416" y="714" type="curve" smooth="yes"/>
      <point x="396" y="714"/>
      <point x="374" y="716"/>
      <point x="358" y="718" type="curve" smooth="yes"/>
      <point x="306" y="718" type="line"/>
      <point x="310" y="666"/>
      <point x="312" y="615"/>
      <point x="312" y="563" type="curve" smooth="yes"/>
      <point x="312" y="440"/>
      <point x="303" y="315"/>
      <point x="303" y="192" type="curve" smooth="yes"/>
      <point x="303" y="139"/>
      <point x="306" y="77"/>
      <point x="307" y="77" type="curve" smooth="yes"/>
      <point x="341" y="77"/>
      <point x="400" y="82"/>
      <point x="458" y="82" type="curve" smooth="yes"/>
      <point x="498" y="82"/>
      <point x="536" y="73"/>
      <point x="536" y="32" type="curve" smooth="yes"/>
      <point x="536" y="-13"/>
      <point x="485" y="-27"/>
      <point x="448" y="-27" type="curve" smooth="yes"/>
      <point x="275" y="-27" type="line" smooth="yes"/>
      <point x="239" y="-27"/>
      <point x="205" y="1"/>
      <point x="203" y="36" type="curve" smooth="yes"/>
      <point x="203" y="90" type="line" smooth="yes"/>
      <point x="203" y="117"/>
      <point x="200" y="145"/>
      <point x="200" y="174" type="curve" smooth="yes"/>
      <point x="200" y="261"/>
      <point x="190" y="349"/>
      <point x="190" y="436" type="curve" smooth="yes"/>
      <point x="190" y="635"/>
      <point x="204" y="835"/>
      <point x="204" y="1034" type="curve" smooth="yes"/>
      <point x="204" y="1092"/>
      <point x="193" y="1149"/>
      <point x="193" y="1207" type="curve" smooth="yes"/>
      <point x="193" y="1266"/>
      <point x="202" y="1352"/>
      <point x="279" y="1352" type="curve" smooth="yes"/>
      <point x="321" y="1352"/>
      <point x="524" y="1323"/>
    </contour>
  </outline>
</glyph>
<glyph name="f" format="1">
  <advance width="756"/>
  <unicode hex="0066"/>
  <outline>
    <contour>
      <point x="417" y="1365" type="move" name="top"/>
    </contour>
    <contour>
      <point x="316" y="753" type="line"/>
      <point x="326" y="753"/>
      <point x="339" y="754"/>
      <point x="354" y="754" type="curve" smooth="yes"/>
      <point x="398" y="754"/>
      <point x="453" y="747"/>
      <point x="453" y="700" type="curve" smooth="yes"/>
      <point x="453" y="662"/>
      <point x="415" y="640"/>
      <point x="381" y="640" type="curve" smooth="yes"/>
      <point x="358" y="640"/>
      <point x="322" y="645"/>
      <point x="300" y="652" type="curve"/>
      <point x="300" y="72" type="line" smooth="yes"/>
      <point x="300" y="6"/>
      <point x="278" y="-18"/>
      <point x="247" y="-18" type="curve" smooth="yes"/>
      <point x="225" y="-18"/>
      <point x="199" y="-6"/>
      <point x="174" y="13" type="curve"/>
      <point x="203" y="333"/>
      <point x="197" y="655"/>
      <point x="214" y="975" type="curve"/>
      <point x="214" y="1025" type="line"/>
      <point x="219" y="1118"/>
      <point x="222" y="1210"/>
      <point x="222" y="1303" type="curve" smooth="yes"/>
      <point x="222" y="1344"/>
      <point x="265" y="1364"/>
      <point x="301" y="1364" type="curve" smooth="yes"/>
      <point x="355" y="1364"/>
      <point x="570" y="1358"/>
      <point x="570" y="1281" type="curve" smooth="yes"/>
      <point x="570" y="1229"/>
      <point x="505" y="1223"/>
      <point x="466" y="1223" type="curve"/>
      <point x="433" y="1239"/>
      <point x="395" y="1243"/>
      <point x="359" y="1243" type="curve" smooth="yes"/>
      <point x="335" y="1243" type="line"/>
      <point x="335" y="1219" type="line" smooth="yes"/>
      <point x="334" y="1082"/>
      <point x="316" y="945"/>
      <point x="316" y="808" type="curve" smooth="yes"/>
    </contour>
  </outline>
</glyph>
<glyph name="i" format="1">
  <advance width="774"/>
  <unicode hex="0069"/>
  <outline>
    <contour>
      <point x="402" y="0" type="move" name="ogonek"/>
    </contour>
    <contour>
      <point x="377" y="1365" type="move" name="top"/>
    </contour>
    <contour>
      <point x="429" y="185" type="line" smooth="yes"/>
      <point x="429" y="166"/>
      <point x="428" y="144"/>
      <point x="428" y="128" type="curve"/>
      <point x="455" y="128" type="line" smooth="yes"/>
      <point x="470" y="128"/>
      <point x="491" y="130"/>
      <point x="514" y="130" type="curve" smooth="yes"/>
      <point x="555" y="130"/>
      <point x="598" y="122"/>
      <point x="598" y="79" type="curve" smooth="yes"/>
      <point x="598" y="43"/>
      <point x="565" y="16"/>
      <point x="530" y="16" type="curve" smooth="yes"/>
      <point x="440" y="16" type="line" smooth="yes"/>
      <point x="394" y="16"/>
      <point x="347" y="16"/>
      <point x="321" y="20" type="curve" smooth="yes"/>
      <point x="313" y="19"/>
      <point x="304" y="18"/>
      <point x="296" y="18" type="curve" smooth="yes"/>
      <point x="241" y="18"/>
      <point x="223" y="40"/>
      <point x="223" y="64" type="curve" smooth="yes"/>
      <point x="223" y="90"/>
      <point x="243" y="117"/>
      <point x="259" y="118" type="curve" smooth="yes"/>
      <point x="317" y="118" type="line"/>
      <point x="318" y="127"/>
      <point x="321" y="136"/>
      <point x="321" y="145" type="curve" smooth="yes"/>
      <point x="321" y="290"/>
      <point x="307" y="435"/>
      <point x="307" y="580" type="curve" smooth="yes"/>
      <point x="307" y="732"/>
      <point x="318" y="884"/>
      <point x="318" y="1036" type="curve" smooth="yes"/>
      <point x="318" y="1109"/>
      <point x="315" y="1184"/>
      <point x="308" y="1256" type="curve"/>
      <point x="269" y="1256" type="line" smooth="yes"/>
      <point x="254" y="1256"/>
      <point x="238" y="1254"/>
      <point x="222" y="1254" type="curve" smooth="yes"/>
      <point x="188" y="1254"/>
      <point x="158" y="1262"/>
      <point x="158" y="1309" type="curve" smooth="yes"/>
      <point x="158" y="1353"/>
      <point x="220" y="1356"/>
      <point x="259" y="1356" type="curve" smooth="yes"/>
      <point x="503" y="1356" type="line" smooth="yes"/>
      <point x="564" y="1356"/>
      <point x="586" y="1335"/>
      <point x="586" y="1313" type="curve" smooth="yes"/>
      <point x="586" y="1288"/>
      <point x="559" y="1262"/>
      <point x="527" y="1262" type="curve" smooth="yes"/>
      <point x="422" y="1262" type="line"/>
      <point x="428" y="1199"/>
      <point x="430" y="1136"/>
      <point x="430" y="1072" type="curve" smooth="yes"/>
      <point x="430" y="942"/>
      <point x="419" y="811"/>
      <point x="419" y="681" type="curve" smooth="yes"/>
      <point x="419" y="536"/>
      <point x="429" y="391"/>
      <point x="429" y="246" type="curve" smooth="yes"/>
    </contour>
  </outline>
</glyph>
<glyph name="l" format="1">
  <advance width="684"/>
  <unicode hex="006C"/>
  <outline>
    <contour>
      <point x="370" y="0" type="move" name="bot"/>
    </contour>
    <contour>
      <point x="287" y="1365" type="move" name="top"/>
    </contour>
    <contour>
      <point x="307" y="545" type="line" smooth="yes"/>
      <point x="307" y="435"/>
      <point x="299" y="333"/>
      <point x="299" y="219" type="curve" smooth="yes"/>
      <point x="299" y="154"/>
      <point x="308" y="78"/>
      <point x="368" y="78" type="curve" smooth="yes"/>
      <point x="387" y="78"/>
      <point x="420" y="81"/>
      <point x="453" y="81" type="curve" smooth="yes"/>
      <point x="507" y="81"/>
      <point x="563" y="72"/>
      <point x="563" y="21" type="curve" smooth="yes"/>
      <point x="563" y="-11"/>
      <point x="528" y="-29"/>
      <point x="501" y="-33" type="curve"/>
      <point x="442" y="-14"/>
      <point x="380" y="-9"/>
      <point x="318" y="-9" type="curve"/>
      <point x="297" y="-21"/>
      <point x="272" y="-28"/>
      <point x="248" y="-28" type="curve" smooth="yes"/>
      <point x="214" y="-28"/>
      <point x="190" y="7"/>
      <point x="190" y="39" type="curve" smooth="yes"/>
      <point x="190" y="344"/>
      <point x="216" y="649"/>
      <point x="216" y="954" type="curve" smooth="yes"/>
      <point x="216" y="969" type="line"/>
      <point x="210" y="1033"/>
      <point x="204" y="1097"/>
      <point x="204" y="1161" type="curve" smooth="yes"/>
      <point x="204" y="1207"/>
      <point x="205" y="1355"/>
      <point x="275" y="1355" type="curve" smooth="yes"/>
      <point x="303" y="1355"/>
      <point x="327" y="1332"/>
      <point x="327" y="1304" type="curve" smooth="yes"/>
      <point x="327" y="1252"/>
      <point x="313" y="1200"/>
      <point x="313" y="1148" type="curve" smooth="yes"/>
      <point x="313" y="984"/>
      <point x="319" y="820"/>
      <point x="319" y="656" type="curve"/>
      <point x="308" y="630"/>
      <point x="307" y="599"/>
      <point x="307" y="570" type="curve" smooth="yes"/>
    </contour>
  </outline>
</glyph>
<glyph name="m" format="1">
  <advance width="1206"/>
  <unicode hex="006D"/>
  <outline>
    <contour>
      <point x="607" y="1365" type="move" name="top"/>
    </contour>
    <contour>
      <point x="887" y="806" type="curve" smooth="yes"/>
      <point x="887" y="890"/>
      <point x="895" y="975"/>
      <point x="895" y="1059" type="curve"/>
      <point x="855" y="937"/>
      <point x="690" y="114"/>
      <point x="603" y="114" type="curve" smooth="yes"/>
      <point x="549" y="114"/>
      <point x="518" y="149"/>
      <point x="518" y="202" type="curve" smooth="yes"/>
      <point x="518" y="348"/>
      <point x="365" y="904"/>
      <point x="312" y="1065" type="curve"/>
      <point x="295" y="740"/>
      <point x="273" y="415"/>
      <point x="273" y="89" type="curve" smooth="yes"/>
      <point x="273" y="69"/>
      <point x="276" y="47"/>
      <point x="276" y="28" type="curve" smooth="yes"/>
      <point x="276" y="-10"/>
      <point x="266" y="-40"/>
      <point x="208" y="-40" type="curve" smooth="yes"/>
      <point x="183" y="-40"/>
      <point x="150" y="-20"/>
      <point x="150" y="9" type="curve" smooth="yes"/>
      <point x="150" y="427"/>
      <point x="213" y="843"/>
      <point x="213" y="1261" type="curve"/>
      <point x="206" y="1272"/>
      <point x="201" y="1288"/>
      <point x="201" y="1301" type="curve" smooth="yes"/>
      <point x="201" y="1340"/>
      <point x="250" y="1351"/>
      <point x="280" y="1351" type="curve" smooth="yes"/>
      <point x="347" y="1351"/>
      <point x="586" y="520"/>
      <point x="614" y="370" type="curve"/>
      <point x="655" y="505"/>
      <point x="821" y="1348"/>
      <point x="928" y="1348" type="curve" smooth="yes"/>
      <point x="959" y="1348"/>
      <point x="1003" y="1329"/>
      <point x="1003" y="1292" type="curve" smooth="yes"/>
      <point x="1003" y="1002"/>
      <point x="1029" y="693"/>
      <point x="1029" y="423" type="curve" smooth="yes"/>
      <point x="1029" y="351"/>
      <point x="1024" y="279"/>
      <point x="1024" y="207" type="curve" smooth="yes"/>
      <point x="1024" y="206" type="line" smooth="yes"/>
      <point x="1024" y="176"/>
      <point x="1040" y="23"/>
      <point x="1040" y="20" type="curve" smooth="yes"/>
      <point x="1045" y="8"/>
      <point x="1049" y="-6"/>
      <point x="1049" y="-19" type="curve" smooth="yes"/>
      <point x="1049" y="-58"/>
      <point x="1024" y="-107"/>
      <point x="980" y="-107" type="curve" smooth="yes"/>
      <point x="921" y="-107"/>
      <point x="916" y="-21"/>
      <point x="916" y="21" type="curve" smooth="yes"/>
      <point x="916" y="108"/>
      <point x="917" y="196"/>
      <point x="917" y="283" type="curve" smooth="yes"/>
      <point x="917" y="461"/>
      <point x="887" y="643"/>
    </contour>
  </outline>
</glyph>
<glyph name="o" format="1">
  <advance width="900"/>
  <unicode hex="006F"/>
  <outline>
    <contour>
      <point x="486" y="0" type="move" name="ogonek"/>
    </contour>
    <contour>
      <point x="447" y="1365" type="move" name="top"/>
    </contour>
    <contour>
      <point x="407" y="1269" type="curve" smooth="yes"/>
      <point x="309" y="1269"/>
      <point x="295" y="1141"/>
      <point x="295" y="1027" type="curve" smooth="yes"/>
      <point x="295" y="981"/>
      <point x="297" y="937"/>
      <point x="297" y="906" type="curve" smooth="yes"/>
      <point x="297" y="843"/>
      <point x="287" y="780"/>
      <point x="287" y="717" type="curve" smooth="yes"/>
      <point x="287" y="613"/>
      <point x="298" y="47"/>
      <point x="432" y="47" type="curve" smooth="yes"/>
      <point x="589" y="47"/>
      <point x="603" y="454"/>
      <point x="603" y="564" type="curve" smooth="yes"/>
      <point x="603" y="723"/>
      <point x="577" y="882"/>
      <point x="576" y="1041" type="curve" smooth="yes"/>
      <point x="576" y="1077" type="line" smooth="yes"/>
      <point x="573" y="1171"/>
      <point x="509" y="1269"/>
    </contour>
    <contour>
      <point x="709" y="798" type="curve" smooth="yes"/>
      <point x="709" y="783" type="line" smooth="yes"/>
      <point x="709" y="706"/>
      <point x="713" y="628"/>
      <point x="713" y="551" type="curve" smooth="yes"/>
      <point x="713" y="368"/>
      <point x="698" y="-38"/>
      <point x="440" y="-38" type="curve" smooth="yes"/>
      <point x="207" y="-38"/>
      <point x="176" y="410"/>
      <point x="176" y="626" type="curve" smooth="yes"/>
      <point x="176" y="658"/>
      <point x="178" y="677"/>
      <point x="178" y="704" type="curve" smooth="yes"/>
      <point x="178" y="711"/>
      <point x="177" y="714"/>
      <point x="175" y="714" type="curve" smooth="yes"/>
      <point x="175" y="751" type="line" smooth="yes"/>
      <point x="175" y="860"/>
      <point x="174" y="1378"/>
      <point x="329" y="1378" type="curve" smooth="yes"/>
      <point x="615" y="1378"/>
      <point x="709" y="1114"/>
    </contour>
  </outline>
</glyph>
<glyph name="p" format="1">
  <advance width="720"/>
  <unicode hex="0070"/>
  <outline>
    <contour>
      <point x="387" y="1365" type="move" name="top"/>
    </contour>
    <contour>
      <point x="334" y="1228" type="curve"/>
      <point x="334" y="1231"/>
      <point x="314" y="1231"/>
      <point x="312" y="1231" type="curve" smooth="yes"/>
      <point x="312" y="1115" type="line" smooth="yes"/>
      <point x="312" y="982"/>
      <point x="315" y="849"/>
      <point x="316" y="716" type="curve" smooth="yes"/>
      <point x="316" y="713" type="line"/>
      <point x="435" y="729"/>
      <point x="438" y="969"/>
      <point x="438" y="1059" type="curve" smooth="yes"/>
      <point x="438" y="1136"/>
      <point x="434" y="1228"/>
    </contour>
    <contour>
      <point x="197" y="1270" type="curve"/>
      <point x="202" y="1297"/>
      <point x="219" y="1342"/>
      <point x="252" y="1342" type="curve" smooth="yes"/>
      <point x="342" y="1342" type="line" smooth="yes"/>
      <point x="507" y="1342"/>
      <point x="550" y="1180"/>
      <point x="550" y="1044" type="curve" smooth="yes"/>
      <point x="550" y="831"/>
      <point x="547" y="699"/>
      <point x="315" y="628" type="curve"/>
      <point x="315" y="409" type="line" smooth="yes"/>
      <point x="315" y="279"/>
      <point x="331" y="151"/>
      <point x="331" y="21" type="curve" smooth="yes"/>
      <point x="331" y="-14"/>
      <point x="296" y="-39"/>
      <point x="262" y="-39" type="curve"/>
      <point x="219" y="-14" type="line"/>
      <point x="197" y="85"/>
      <point x="194" y="186"/>
      <point x="194" y="287" type="curve" smooth="yes"/>
      <point x="194" y="409"/>
      <point x="202" y="530"/>
      <point x="202" y="652" type="curve"/>
      <point x="195" y="668"/>
      <point x="190" y="685"/>
      <point x="190" y="702" type="curve" smooth="yes"/>
      <point x="190" y="709" type="line"/>
      <point x="209" y="747"/>
      <point x="210" y="841"/>
      <point x="210" y="885" type="curve" smooth="yes"/>
      <point x="210" y="944"/>
      <point x="213" y="1012"/>
      <point x="213" y="1080" type="curve" smooth="yes"/>
      <point x="213" y="1147"/>
      <point x="211" y="1213"/>
    </contour>
  </outline>
</glyph>
<glyph name="s" format="1">
  <advance width="720"/>
  <unicode hex="0073"/>
  <outline>
    <contour>
      <point x="390" y="0" type="move" name="bot"/>
    </contour>
    <contour>
      <point x="387" y="1365" type="move" name="top"/>
    </contour>
    <contour>
      <point x="291" y="1075" type="curve" smooth="yes"/>
      <point x="291" y="811"/>
      <point x="536" y="689"/>
      <point x="536" y="342" type="curve" smooth="yes"/>
      <point x="536" y="191"/>
      <point x="466" y="-19"/>
      <point x="282" y="-23" type="curve"/>
      <point x="282" y="-28" type="line"/>
      <point x="238" y="-22"/>
      <point x="196" y="3"/>
      <point x="190" y="51" type="curve"/>
      <point x="213" y="86" type="line"/>
      <point x="241" y="82"/>
      <point x="269" y="71"/>
      <point x="298" y="71" type="curve" smooth="yes"/>
      <point x="409" y="71"/>
      <point x="436" y="286"/>
      <point x="436" y="367" type="curve" smooth="yes"/>
      <point x="436" y="631"/>
      <point x="191" y="790"/>
      <point x="191" y="1086" type="curve" smooth="yes"/>
      <point x="191" y="1194"/>
      <point x="240" y="1381"/>
      <point x="376" y="1381" type="curve" smooth="yes"/>
      <point x="420" y="1381"/>
      <point x="477" y="1349"/>
      <point x="477" y="1300" type="curve" smooth="yes"/>
      <point x="477" y="1273"/>
      <point x="450" y="1261"/>
      <point x="427" y="1261" type="curve" smooth="yes"/>
      <point x="413" y="1261"/>
      <point x="396" y="1266"/>
      <point x="384" y="1273" type="curve"/>
      <point x="316" y="1271"/>
      <point x="291" y="1127"/>
    </contour>
  </outline>
</glyph>
<glyph name="t" format="1">
  <advance width="702"/>
  <unicode hex="0074"/>
  <outline>
    <contour>
      <point x="392" y="0" type="move" name="bot"/>
    </contour>
    <contour>
      <point x="347" y="1365" type="move" name="top"/>
    </contour>
    <contour>
      <point x="339" y="190" type="curve" smooth="yes"/>
      <point x="339" y="213"/>
      <point x="341" y="237"/>
      <point x="342" y="260" type="curve"/>
      <point x="330" y="299"/>
      <point x="285" y="1154"/>
      <point x="283" y="1255" type="curve"/>
      <point x="241" y="1256"/>
      <point x="109" y="1255"/>
      <point x="109" y="1316" type="curve" smooth="yes"/>
      <point x="109" y="1344"/>
      <point x="151" y="1360"/>
      <point x="174" y="1360" type="curve" smooth="yes"/>
      <point x="267" y="1360"/>
      <point x="359" y="1341"/>
      <point x="452" y="1341" type="curve" smooth="yes"/>
      <point x="462" y="1341"/>
      <point x="473" y="1342"/>
      <point x="485" y="1342" type="curve" smooth="yes"/>
      <point x="517" y="1342"/>
      <point x="549" y="1336"/>
      <point x="549" y="1293" type="curve" smooth="yes"/>
      <point x="549" y="1257"/>
      <point x="513" y="1237"/>
      <point x="481" y="1237" type="curve" smooth="yes"/>
      <point x="449" y="1237"/>
      <point x="418" y="1247"/>
      <point x="387" y="1251" type="curve"/>
      <point x="386" y="1245"/>
      <point x="383" y="1237"/>
      <point x="383" y="1230" type="curve" smooth="yes"/>
      <point x="383" y="841"/>
      <point x="451" y="456"/>
      <point x="451" y="67" type="curve" smooth="yes"/>
      <point x="451" y="34"/>
      <point x="414" y="6"/>
      <point x="381" y="6" type="curve"/>
      <point x="343" y="33" type="line"/>
      <point x="343" y="85"/>
      <point x="339" y="138"/>
    </contour>
  </outline>
</glyph>
<glyph name="w" format="1">
  <advance width="990"/>
  <unicode hex="0077"/>
  <outline>
    <contour>
      <point x="487" y="1365" type="move" name="top"/>
    </contour>
    <contour>
      <point x="748" y="139" type="curve" smooth="yes"/>
      <point x="748" y="102" type="line" smooth="yes"/>
      <point x="748" y="48"/>
      <point x="742" y="-19"/>
      <point x="679" y="-19" type="curve" smooth="yes"/>
      <point x="631" y="-19"/>
      <point x="610" y="19"/>
      <point x="610" y="57" type="curve" smooth="yes"/>
      <point x="610" y="340"/>
      <point x="548" y="648"/>
      <point x="504" y="942" type="curve"/>
      <point x="500" y="903"/>
      <point x="497" y="865"/>
      <point x="497" y="826" type="curve" smooth="yes"/>
      <point x="497" y="700"/>
      <point x="448" y="-43"/>
      <point x="340" y="-43" type="curve" smooth="yes"/>
      <point x="194" y="-43"/>
      <point x="193" y="1142"/>
      <point x="126" y="1293" type="curve"/>
      <point x="137" y="1316"/>
      <point x="160" y="1329"/>
      <point x="185" y="1329" type="curve" smooth="yes"/>
      <point x="245" y="1329"/>
      <point x="251" y="1238"/>
      <point x="251" y="1195" type="curve" smooth="yes"/>
      <point x="251" y="888"/>
      <point x="331" y="589"/>
      <point x="342" y="283" type="curve"/>
      <point x="385" y="573"/>
      <point x="429" y="884"/>
      <point x="429" y="1186" type="curve"/>
      <point x="484" y="1210" type="line"/>
      <point x="514" y="1210"/>
      <point x="545" y="1194"/>
      <point x="545" y="1160" type="curve" smooth="yes"/>
      <point x="545" y="1143" type="line"/>
      <point x="626" y="871"/>
      <point x="626" y="586"/>
      <point x="667" y="307" type="curve"/>
      <point x="697" y="531"/>
      <point x="705" y="758"/>
      <point x="705" y="984" type="curve" smooth="yes"/>
      <point x="705" y="1087"/>
      <point x="736" y="1189"/>
      <point x="736" y="1292" type="curve"/>
      <point x="731" y="1305"/>
      <point x="729" y="1316"/>
      <point x="729" y="1327" type="curve" smooth="yes"/>
      <point x="729" y="1357"/>
      <point x="747" y="1377"/>
      <point x="792" y="1377" type="curve" smooth="yes"/>
      <point x="821" y="1377"/>
      <point x="844" y="1360"/>
      <point x="844" y="1329" type="curve" smooth="yes"/>
      <point x="844" y="1298" type="line" smooth="yes"/>
      <point x="844" y="1280"/>
      <point x="843" y="1262"/>
      <point x="839" y="1245" type="curve"/>
      <point x="839" y="1234" type="line"/>
      <point x="819" y="1173"/>
      <point x="811" y="1109"/>
      <point x="811" y="1046" type="curve" smooth="yes"/>
      <point x="811" y="896" type="line" smooth="yes"/>
      <point x="811" y="644"/>
      <point x="748" y="371"/>
    </contour>
  </outline>
</glyph>
<glyph name="x" format="1">
  <advance width="738"/>
  <unicode hex="0078"/>
  <outline>
    <contour>
      <point x="367" y="1365" type="move" name="top"/>
    </contour>
    <contour>
      <point x="365" y="894" type="curve"/>
      <point x="380" y="981"/>
      <point x="399" y="1069"/>
      <point x="399" y="1158" type="curve" smooth="yes"/>
      <point x="399" y="1181"/>
      <point x="398" y="1204"/>
      <point x="398" y="1225" type="curve" smooth="yes"/>
      <point x="398" y="1286"/>
      <point x="408" y="1335"/>
      <point x="490" y="1357" type="curve"/>
      <point x="528" y="1309" type="line"/>
      <point x="493" y="1258"/>
      <point x="493" y="1193"/>
      <point x="493" y="1133" type="curve" smooth="yes"/>
      <point x="493" y="1109" type="line"/>
      <point x="461" y="1021"/>
      <point x="415" y="741"/>
      <point x="415" y="646" type="curve" smooth="yes"/>
      <point x="415" y="475"/>
      <point x="563" y="175"/>
      <point x="563" y="54" type="curve" smooth="yes"/>
      <point x="563" y="24"/>
      <point x="536" y="3"/>
      <point x="508" y="3" type="curve" smooth="yes"/>
      <point x="424" y="3"/>
      <point x="379" y="353"/>
      <point x="362" y="433" type="curve"/>
      <point x="342" y="320"/>
      <point x="344" y="203"/>
      <point x="310" y="93" type="curve" smooth="yes"/>
      <point x="311" y="86"/>
      <point x="311" y="78"/>
      <point x="311" y="69" type="curve" smooth="yes"/>
      <point x="311" y="33"/>
      <point x="300" y="-7"/>
      <point x="258" y="-7" type="curve" smooth="yes"/>
      <point x="231" y="-7"/>
      <point x="196" y="8"/>
      <point x="196" y="40" type="curve" smooth="yes"/>
      <point x="196" y="253"/>
      <point x="312" y="447"/>
      <point x="312" y="660" type="curve" smooth="yes"/>
      <point x="312" y="733"/>
      <point x="218" y="1172"/>
      <point x="185" y="1219" type="curve"/>
      <point x="185" y="1241" type="line"/>
      <point x="172" y="1254"/>
      <point x="166" y="1274"/>
      <point x="166" y="1292" type="curve" smooth="yes"/>
      <point x="166" y="1322"/>
      <point x="203" y="1334"/>
      <point x="227" y="1334" type="curve" smooth="yes"/>
      <point x="301" y="1334"/>
      <point x="347" y="979"/>
    </contour>
  </outline>
</glyph>
<glyph name="y" format="1">
  <advance width="774"/>
  <unicode hex="0079"/>
  <outline>
    <contour>
      <point x="407" y="1365" type="move" name="top"/>
    </contour>
    <contour>
      <point x="491" y="109" type="line" smooth="yes"/>
      <point x="491" y="53"/>
      <point x="486" y="-28"/>
      <point x="424" y="-28" type="curve" smooth="yes"/>
      <point x="397" y="-28"/>
      <point x="377" y="-6"/>
      <point x="367" y="17" type="curve"/>
      <point x="390" y="62"/>
      <point x="390" y="300"/>
      <point x="390" y="364" type="curve" smooth="yes"/>
      <point x="390" y="464"/>
      <point x="370" y="564"/>
      <point x="366" y="664" type="curve"/>
      <point x="366" y="717" type="line"/>
      <point x="326" y="825"/>
      <point x="166" y="1202"/>
      <point x="166" y="1288" type="curve" smooth="yes"/>
      <point x="166" y="1299" type="line"/>
      <point x="212" y="1333" type="line"/>
      <point x="291" y="1331"/>
      <point x="374" y="951"/>
      <point x="400" y="877" type="curve"/>
      <point x="430" y="954"/>
      <point x="470" y="1362"/>
      <point x="560" y="1362" type="curve" smooth="yes"/>
      <point x="584" y="1362"/>
      <point x="610" y="1346"/>
      <point x="610" y="1319" type="curve" smooth="yes"/>
      <point x="610" y="1118"/>
      <point x="495" y="932"/>
      <point x="491" y="726" type="curve"/>
    </contour>
  </outline>
</glyph>
<glyph name="braceright" format="1">
  <advance width="774"/>
  <unicode hex="007D"/>
  <outline>
    <contour>
      <point x="325" y="1495" type="curve" smooth="yes"/>
      <point x="488" y="1495"/>
      <point x="526" y="1394"/>
      <point x="527" y="1249" type="curve" smooth="yes"/>
      <point x="528" y="876" type="line" smooth="yes"/>
      <point x="528" y="712"/>
      <point x="657" y="821"/>
      <point x="657" y="731" type="curve" smooth="yes"/>
      <point x="657" y="630"/>
      <point x="528" y="745"/>
      <point x="528" y="581" type="curve" smooth="yes"/>
      <point x="528" y="538"/>
      <point x="536" y="421"/>
      <point x="536" y="330" type="curve" smooth="yes"/>
      <point x="536" y="279"/>
      <point x="534" y="236"/>
      <point x="525" y="221" type="curve"/>
      <point x="528" y="202"/>
      <point x="529" y="184"/>
      <point x="529" y="166" type="curve" smooth="yes"/>
      <point x="529" y="47"/>
      <point x="462" y="-48"/>
      <point x="325" y="-48" type="curve" smooth="yes"/>
      <point x="291" y="-48"/>
      <point x="182" y="-35"/>
      <point x="182" y="12" type="curve" smooth="yes"/>
      <point x="182" y="43"/>
      <point x="212" y="58"/>
      <point x="239" y="58" type="curve" smooth="yes"/>
      <point x="274" y="58"/>
      <point x="305" y="39"/>
      <point x="340" y="39" type="curve" smooth="yes"/>
      <point x="437" y="39"/>
      <point x="438" y="224"/>
      <point x="438" y="289" type="curve" smooth="yes"/>
      <point x="438" y="346"/>
      <point x="428" y="443"/>
      <point x="428" y="534" type="curve" smooth="yes"/>
      <point x="428" y="615"/>
      <point x="436" y="691"/>
      <point x="466" y="729" type="curve"/>
      <point x="434" y="770"/>
      <point x="429" y="825"/>
      <point x="429" y="875" type="curve" smooth="yes"/>
      <point x="429" y="915"/>
      <point x="439" y="1021"/>
      <point x="439" y="1127" type="curve" smooth="yes"/>
      <point x="439" y="1267"/>
      <point x="422" y="1408"/>
      <point x="340" y="1408" type="curve" smooth="yes"/>
      <point x="298" y="1408"/>
      <point x="261" y="1385"/>
      <point x="219" y="1385" type="curve" smooth="yes"/>
      <point x="207" y="1385"/>
      <point x="202" y="1422"/>
      <point x="202" y="1431" type="curve" smooth="yes"/>
      <point x="202" y="1483"/>
      <point x="287" y="1495"/>
    </contour>
  </outline>
</glyph>
<glyph name="exclamdown" format="1">
  <advance width="594"/>
  <unicode hex="00A1"/>
  <outline>
    <contour>
      <point x="239" y="890" type="curve" smooth="yes"/>
      <point x="239" y="988"/>
      <point x="257" y="1030"/>
      <point x="277" y="1030" type="curve" smooth="yes"/>
      <point x="303" y="1030"/>
      <point x="333" y="961"/>
      <point x="333" y="854" type="curve" smooth="yes"/>
      <point x="333" y="740"/>
      <point x="325" y="623"/>
      <point x="325" y="515" type="curve" smooth="yes"/>
      <point x="325" y="291"/>
      <point x="335" y="67"/>
      <point x="335" y="-157" type="curve" smooth="yes"/>
      <point x="335" y="-201"/>
      <point x="290" y="-236"/>
      <point x="248" y="-236" type="curve" smooth="yes"/>
      <point x="220" y="-236"/>
      <point x="198" y="-214"/>
      <point x="198" y="-186" type="curve" smooth="yes"/>
      <point x="198" y="141"/>
      <point x="241" y="466"/>
      <point x="241" y="793" type="curve" smooth="yes"/>
      <point x="241" y="825"/>
      <point x="239" y="858"/>
    </contour>
    <contour>
      <point x="213" y="1310" type="curve" smooth="yes"/>
      <point x="213" y="1363"/>
      <point x="258" y="1382"/>
      <point x="314" y="1382" type="curve" smooth="yes"/>
      <point x="339" y="1382"/>
      <point x="382" y="1356"/>
      <point x="382" y="1303" type="curve" smooth="yes"/>
      <point x="382" y="1258"/>
      <point x="345" y="1211"/>
      <point x="297" y="1211" type="curve" smooth="yes"/>
      <point x="242" y="1211"/>
      <point x="213" y="1259"/>
    </contour>
  </outline>
</glyph>
<glyph name="sterling" format="1">
  <advance width="954"/>
  <unicode hex="00A3"/>
  <outline>
    <contour>
      <point x="744" y="146" type="curve" smooth="yes"/>
      <point x="775" y="146"/>
      <point x="799" y="123"/>
      <point x="799" y="96" type="curve" smooth="yes"/>
      <point x="799" y="59"/>
      <point x="750" y="27"/>
      <point x="651" y="27" type="curve" smooth="yes"/>
      <point x="542" y="27"/>
      <point x="474" y="57"/>
      <point x="370" y="68" type="curve"/>
      <point x="370" y="71" type="line"/>
      <point x="333" y="70"/>
      <point x="221" y="21"/>
      <point x="186" y="2" type="curve"/>
      <point x="186" y="6" type="line"/>
      <point x="161" y="8"/>
      <point x="128" y="23"/>
      <point x="128" y="53" type="curve" smooth="yes"/>
      <point x="128" y="123"/>
      <point x="215" y="125"/>
      <point x="257" y="158" type="curve" smooth="yes"/>
      <point x="304" y="194"/>
      <point x="319" y="325"/>
      <point x="319" y="382" type="curve" smooth="yes"/>
      <point x="319" y="559"/>
      <point x="253" y="725"/>
      <point x="212" y="894" type="curve"/>
      <point x="132" y="894"/>
      <point x="118" y="906"/>
      <point x="118" y="918" type="curve" smooth="yes"/>
      <point x="118" y="924" type="line" smooth="yes"/>
      <point x="118" y="943"/>
      <point x="121" y="966"/>
      <point x="195" y="966" type="curve"/>
      <point x="192" y="1057"/>
      <point x="170" y="1147"/>
      <point x="170" y="1238" type="curve" smooth="yes"/>
      <point x="170" y="1329"/>
      <point x="189" y="1632"/>
      <point x="355" y="1632" type="curve" smooth="yes"/>
      <point x="380" y="1632" type="line" smooth="yes"/>
      <point x="460" y="1632"/>
      <point x="547" y="1474"/>
      <point x="547" y="1403" type="curve" smooth="yes"/>
      <point x="547" y="1380"/>
      <point x="544" y="1359"/>
      <point x="515" y="1359" type="curve" smooth="yes"/>
      <point x="406" y="1359"/>
      <point x="455" y="1535"/>
      <point x="361" y="1535" type="curve" smooth="yes"/>
      <point x="294" y="1535"/>
      <point x="269" y="1340"/>
      <point x="269" y="1270" type="curve" smooth="yes"/>
      <point x="269" y="1243" type="line" smooth="yes"/>
      <point x="269" y="1154"/>
      <point x="270" y="1062"/>
      <point x="288" y="976" type="curve"/>
      <point x="357" y="976"/>
      <point x="424" y="979"/>
      <point x="493" y="979" type="curve" smooth="yes"/>
      <point x="519" y="979"/>
      <point x="545" y="957"/>
      <point x="545" y="928" type="curve" smooth="yes"/>
      <point x="545" y="909"/>
      <point x="452" y="910"/>
      <point x="309" y="900" type="curve"/>
      <point x="340" y="728"/>
      <point x="416" y="554"/>
      <point x="416" y="378" type="curve" smooth="yes"/>
      <point x="416" y="305"/>
      <point x="390" y="238"/>
      <point x="369" y="169" type="curve"/>
      <point x="459" y="162"/>
      <point x="544" y="125"/>
      <point x="634" y="125" type="curve" smooth="yes"/>
      <point x="673" y="125"/>
      <point x="707" y="146"/>
    </contour>
  </outline>
</glyph>
<glyph name="yen" format="1">
  <advance width="990"/>
  <unicode hex="00A5"/>
  <outline>
    <contour>
      <point x="53" y="1764" type="line"/>
      <point x="56" y="1759" type="line"/>
      <point x="72" y="1766"/>
      <point x="89" y="1774"/>
      <point x="106" y="1774" type="curve" smooth="yes"/>
      <point x="205" y="1774"/>
      <point x="450" y="1293"/>
      <point x="507" y="1207" type="curve"/>
      <point x="544" y="1302"/>
      <point x="663" y="1832"/>
      <point x="760" y="1832" type="curve" smooth="yes"/>
      <point x="790" y="1832"/>
      <point x="818" y="1809"/>
      <point x="818" y="1778" type="curve"/>
      <point x="816" y="1768" type="line"/>
      <point x="755" y="1589"/>
      <point x="691" y="1422"/>
      <point x="644" y="1238" type="curve" smooth="yes"/>
      <point x="628" y="1176"/>
      <point x="595" y="1121"/>
      <point x="580" y="1059" type="curve"/>
      <point x="605" y="1056" type="line" smooth="yes"/>
      <point x="633" y="1056"/>
      <point x="699" y="1066"/>
      <point x="760" y="1066" type="curve" smooth="yes"/>
      <point x="827" y="1066"/>
      <point x="887" y="1054"/>
      <point x="887" y="1005" type="curve" smooth="yes"/>
      <point x="887" y="955"/>
      <point x="815" y="948"/>
      <point x="774" y="948" type="curve" smooth="yes"/>
      <point x="765" y="948" type="line"/>
      <point x="574" y="950" type="line"/>
      <point x="574" y="887" type="line"/>
      <point x="599" y="887"/>
      <point x="660" y="895"/>
      <point x="722" y="895" type="curve" smooth="yes"/>
      <point x="802" y="895"/>
      <point x="882" y="881"/>
      <point x="882" y="820" type="curve" smooth="yes"/>
      <point x="882" y="789"/>
      <point x="851" y="766"/>
      <point x="822" y="766" type="curve" smooth="yes"/>
      <point x="714" y="766" type="line"/>
      <point x="735" y="776" type="line"/>
      <point x="569" y="776" type="line"/>
      <point x="568" y="564"/>
      <point x="538" y="354"/>
      <point x="538" y="142" type="curve" smooth="yes"/>
      <point x="538" y="128"/>
      <point x="539" y="111"/>
      <point x="539" y="94" type="curve" smooth="yes"/>
      <point x="539" y="45"/>
      <point x="531" y="-8"/>
      <point x="470" y="-8" type="curve" smooth="yes"/>
      <point x="442" y="-8"/>
      <point x="405" y="6"/>
      <point x="405" y="40" type="curve" smooth="yes"/>
      <point x="405" y="45" type="line"/>
      <point x="432" y="112"/>
      <point x="448" y="663"/>
      <point x="448" y="773" type="curve"/>
      <point x="441" y="773" type="line" smooth="yes"/>
      <point x="378" y="773"/>
      <point x="314" y="762"/>
      <point x="251" y="762" type="curve" smooth="yes"/>
      <point x="237" y="762" type="line"/>
      <point x="206" y="763" type="line"/>
      <point x="182" y="776"/>
      <point x="163" y="798"/>
      <point x="152" y="823" type="curve"/>
      <point x="168" y="875" type="line"/>
      <point x="264" y="875"/>
      <point x="361" y="878"/>
      <point x="457" y="883" type="curve"/>
      <point x="459" y="907"/>
      <point x="459" y="930"/>
      <point x="459" y="954" type="curve"/>
      <point x="458" y="958" type="line"/>
      <point x="431" y="957"/>
      <point x="366" y="948"/>
      <point x="305" y="948" type="curve" smooth="yes"/>
      <point x="236" y="948"/>
      <point x="173" y="960"/>
      <point x="173" y="1010" type="curve" smooth="yes"/>
      <point x="173" y="1017" type="line"/>
      <point x="198" y="1056" type="line"/>
      <point x="251" y="1056"/>
      <point x="303" y="1052"/>
      <point x="356" y="1052" type="curve" smooth="yes"/>
      <point x="390" y="1052"/>
      <point x="424" y="1054"/>
      <point x="458" y="1059" type="curve"/>
      <point x="458" y="1071" type="line"/>
      <point x="278" y="1251"/>
      <point x="246" y="1535"/>
      <point x="53" y="1705" type="curve"/>
    </contour>
  </outline>
</glyph>
<glyph name="brokenbar" format="1">
  <advance width="576"/>
  <unicode hex="00A6"/>
  <outline>
    <contour>
      <point x="275" y="695" type="curve" smooth="yes"/>
      <point x="321" y="695"/>
      <point x="336" y="662"/>
      <point x="336" y="621" type="curve" smooth="yes"/>
      <point x="338" y="-16" type="line" smooth="yes"/>
      <point x="338" y="-50"/>
      <point x="326" y="-80"/>
      <point x="287" y="-80" type="curve" smooth="yes"/>
      <point x="259" y="-80"/>
      <point x="235" y="-57"/>
      <point x="235" y="-29" type="curve" smooth="yes"/>
      <point x="232" y="339" type="line"/>
      <point x="233" y="644" type="line" smooth="yes"/>
      <point x="233" y="668"/>
      <point x="249" y="695"/>
    </contour>
    <contour>
      <point x="230" y="1020" type="curve" smooth="yes"/>
      <point x="230" y="1183"/>
      <point x="222" y="1348"/>
      <point x="222" y="1510" type="curve" smooth="yes"/>
      <point x="222" y="1556"/>
      <point x="245" y="1584"/>
      <point x="293" y="1584" type="curve" smooth="yes"/>
      <point x="331" y="1584"/>
      <point x="338" y="1481"/>
      <point x="338" y="1393" type="curve" smooth="yes"/>
      <point x="338" y="1346"/>
      <point x="336" y="1304"/>
      <point x="336" y="1285" type="curve" smooth="yes"/>
      <point x="333" y="877" type="line" smooth="yes"/>
      <point x="333" y="849"/>
      <point x="309" y="826"/>
      <point x="281" y="826" type="curve" smooth="yes"/>
      <point x="229" y="826"/>
      <point x="230" y="988"/>
    </contour>
  </outline>
</glyph>
<glyph name="copyright" format="1">
  <advance width="1296"/>
  <unicode hex="00A9"/>
  <outline>
    <contour>
      <point x="477" y="911" type="line"/>
      <point x="476" y="911" type="line"/>
      <point x="468" y="878"/>
      <point x="467" y="844"/>
      <point x="467" y="809" type="curve" smooth="yes"/>
      <point x="467" y="758" type="line" smooth="yes"/>
      <point x="467" y="629"/>
      <point x="480" y="332"/>
      <point x="654" y="332" type="curve" smooth="yes"/>
      <point x="752" y="332"/>
      <point x="770" y="440"/>
      <point x="836" y="440" type="curve" smooth="yes"/>
      <point x="873" y="440"/>
      <point x="890" y="404"/>
      <point x="890" y="372" type="curve" smooth="yes"/>
      <point x="890" y="283"/>
      <point x="738" y="225"/>
      <point x="664" y="225" type="curve" smooth="yes"/>
      <point x="593" y="225"/>
      <point x="536" y="265"/>
      <point x="472" y="291" type="curve"/>
      <point x="360" y="504"/>
      <point x="347" y="570"/>
      <point x="347" y="813" type="curve" smooth="yes"/>
      <point x="347" y="825" type="line" smooth="yes"/>
      <point x="347" y="1028"/>
      <point x="350" y="1499"/>
      <point x="630" y="1499" type="curve" smooth="yes"/>
      <point x="732" y="1499"/>
      <point x="871" y="1380"/>
      <point x="871" y="1275" type="curve" smooth="yes"/>
      <point x="871" y="1247"/>
      <point x="850" y="1223"/>
      <point x="821" y="1223" type="curve" smooth="yes"/>
      <point x="721" y="1223"/>
      <point x="729" y="1387"/>
      <point x="639" y="1387" type="curve" smooth="yes"/>
      <point x="486" y="1387"/>
      <point x="485" y="1026"/>
      <point x="473" y="921" type="curve"/>
    </contour>
    <contour>
      <point x="251" y="940" type="curve"/>
      <point x="252" y="940" type="line"/>
      <point x="252" y="825"/>
      <point x="264" y="710"/>
      <point x="271" y="595" type="curve" smooth="yes"/>
      <point x="285" y="366"/>
      <point x="297" y="81"/>
      <point x="598" y="81" type="curve" smooth="yes"/>
      <point x="855" y="81"/>
      <point x="957" y="234"/>
      <point x="1012" y="464" type="curve" smooth="yes"/>
      <point x="1010" y="470"/>
      <point x="1009" y="476"/>
      <point x="1009" y="483" type="curve" smooth="yes"/>
      <point x="1009" y="516"/>
      <point x="1033" y="558"/>
      <point x="1033" y="589" type="curve" smooth="yes"/>
      <point x="1033" y="894" type="line" smooth="yes"/>
      <point x="1033" y="971"/>
      <point x="1008" y="1046"/>
      <point x="994" y="1121" type="curve" smooth="yes"/>
      <point x="955" y="1328"/>
      <point x="896" y="1528"/>
      <point x="717" y="1658" type="curve" smooth="yes"/>
      <point x="683" y="1683"/>
      <point x="644" y="1713"/>
      <point x="599" y="1713" type="curve" smooth="yes"/>
      <point x="293" y="1713"/>
      <point x="251" y="1160"/>
    </contour>
    <contour>
      <point x="134" y="924" type="curve" smooth="yes"/>
      <point x="134" y="1208"/>
      <point x="184" y="1812"/>
      <point x="575" y="1812" type="curve" smooth="yes"/>
      <point x="1037" y="1812"/>
      <point x="1147" y="1105"/>
      <point x="1147" y="757" type="curve" smooth="yes"/>
      <point x="1147" y="403"/>
      <point x="1064" y="-20"/>
      <point x="624" y="-20" type="curve" smooth="yes"/>
      <point x="179" y="-20"/>
      <point x="166" y="311"/>
      <point x="146" y="660" type="curve" smooth="yes"/>
      <point x="141" y="748"/>
      <point x="134" y="836"/>
    </contour>
  </outline>
</glyph>
<glyph name="guillemotleft" format="1">
  <advance width="936"/>
  <unicode hex="00AB"/>
  <outline>
    <contour>
      <point x="523" y="1440" type="curve"/>
      <point x="416" y="1193"/>
      <point x="343" y="929"/>
      <point x="229" y="687" type="curve"/>
      <point x="262" y="526"/>
      <point x="586" y="65"/>
      <point x="586" y="-13" type="curve" smooth="yes"/>
      <point x="586" y="-45"/>
      <point x="548" y="-59"/>
      <point x="522" y="-59" type="curve" smooth="yes"/>
      <point x="477" y="-59"/>
      <point x="118" y="607"/>
      <point x="118" y="697" type="curve" smooth="yes"/>
      <point x="118" y="749"/>
      <point x="341" y="1261"/>
      <point x="379" y="1361" type="curve"/>
      <point x="383" y="1398"/>
      <point x="415" y="1456"/>
      <point x="440" y="1483" type="curve"/>
      <point x="440" y="1485" type="line"/>
      <point x="446" y="1486"/>
      <point x="453" y="1489"/>
      <point x="459" y="1489" type="curve" smooth="yes"/>
      <point x="488" y="1489"/>
      <point x="521" y="1473"/>
    </contour>
    <contour>
      <point x="837" y="49" type="line"/>
      <point x="835" y="19"/>
      <point x="820" y="-22"/>
      <point x="783" y="-22" type="curve" smooth="yes"/>
      <point x="771" y="-22"/>
      <point x="755" y="-22"/>
      <point x="743" y="-18" type="curve" smooth="yes"/>
      <point x="711" y="-8"/>
      <point x="423" y="612"/>
      <point x="383" y="698" type="curve"/>
      <point x="386" y="798"/>
      <point x="569" y="1125"/>
      <point x="607" y="1255" type="curve" smooth="yes"/>
      <point x="618" y="1293"/>
      <point x="645" y="1447"/>
      <point x="706" y="1447" type="curve" smooth="yes"/>
      <point x="708" y="1447"/>
      <point x="710" y="1446"/>
      <point x="713" y="1446" type="curve" smooth="yes"/>
      <point x="758" y="1411" type="line"/>
      <point x="731" y="1193"/>
      <point x="500" y="869"/>
      <point x="500" y="702" type="curve" smooth="yes"/>
      <point x="500" y="679"/>
      <point x="774" y="135"/>
      <point x="811" y="69" type="curve"/>
    </contour>
  </outline>
</glyph>
<glyph name="registered" format="1">
  <advance width="1350"/>
  <unicode hex="00AE"/>
  <outline>
    <contour>
      <point x="643" y="1525" type="curve" smooth="yes"/>
      <point x="553" y="1525"/>
      <point x="535" y="1475"/>
      <point x="535" y="1407" type="curve" smooth="yes"/>
      <point x="535" y="1364"/>
      <point x="543" y="1312"/>
      <point x="543" y="1263" type="curve" smooth="yes"/>
      <point x="543" y="1175"/>
      <point x="544" y="1086"/>
      <point x="566" y="1000" type="curve"/>
      <point x="687" y="1049"/>
      <point x="751" y="1142"/>
      <point x="751" y="1272" type="curve" smooth="yes"/>
      <point x="751" y="1280" type="line" smooth="yes"/>
      <point x="751" y="1359"/>
      <point x="749" y="1525"/>
    </contour>
    <contour>
      <point x="951" y="199" type="curve" smooth="yes"/>
      <point x="951" y="175"/>
      <point x="917" y="143"/>
      <point x="894" y="143" type="curve" smooth="yes"/>
      <point x="772" y="143"/>
      <point x="670" y="797"/>
      <point x="624" y="914" type="curve"/>
      <point x="569" y="891" type="line"/>
      <point x="567" y="859"/>
      <point x="564" y="828"/>
      <point x="564" y="796" type="curve" smooth="yes"/>
      <point x="564" y="600"/>
      <point x="609" y="406"/>
      <point x="609" y="210" type="curve" smooth="yes"/>
      <point x="609" y="174"/>
      <point x="593" y="143"/>
      <point x="553" y="143" type="curve" smooth="yes"/>
      <point x="517" y="143"/>
      <point x="480" y="169"/>
      <point x="480" y="208" type="curve" smooth="yes"/>
      <point x="480" y="224"/>
      <point x="481" y="240"/>
      <point x="481" y="256" type="curve" smooth="yes"/>
      <point x="481" y="327"/>
      <point x="479" y="399"/>
      <point x="472" y="470" type="curve" smooth="yes"/>
      <point x="465" y="539"/>
      <point x="446" y="606"/>
      <point x="446" y="676" type="curve" smooth="yes"/>
      <point x="446" y="1075" type="line" smooth="yes"/>
      <point x="446" y="1202"/>
      <point x="421" y="1327"/>
      <point x="421" y="1454" type="curve" smooth="yes"/>
      <point x="421" y="1603"/>
      <point x="503" y="1635"/>
      <point x="637" y="1635" type="curve" smooth="yes"/>
      <point x="844" y="1635"/>
      <point x="873" y="1433"/>
      <point x="873" y="1270" type="curve" smooth="yes"/>
      <point x="873" y="1023"/>
      <point x="743" y="1007"/>
      <point x="732" y="969" type="curve"/>
      <point x="735" y="888"/>
      <point x="880" y="425"/>
      <point x="914" y="314" type="curve"/>
      <point x="921" y="314" type="line"/>
      <point x="921" y="271"/>
      <point x="951" y="239"/>
    </contour>
    <contour>
      <point x="930" y="1655" type="curve" smooth="yes"/>
      <point x="900" y="1716"/>
      <point x="772" y="1832"/>
      <point x="703" y="1832" type="curve" smooth="yes"/>
      <point x="301" y="1832"/>
      <point x="278" y="1241"/>
      <point x="278" y="954" type="curve" smooth="yes"/>
      <point x="278" y="747"/>
      <point x="280" y="179"/>
      <point x="418" y="27" type="curve" smooth="yes"/>
      <point x="454" y="-13"/>
      <point x="500" y="-31"/>
      <point x="541" y="-64" type="curve"/>
      <point x="601" y="-76" type="line"/>
      <point x="620" y="-84" type="line"/>
      <point x="1037" y="-79"/>
      <point x="1056" y="396"/>
      <point x="1056" y="706" type="curve" smooth="yes"/>
      <point x="1056" y="759"/>
      <point x="1057" y="812"/>
      <point x="1057" y="866" type="curve" smooth="yes"/>
      <point x="1057" y="1136"/>
      <point x="1047" y="1416"/>
    </contour>
    <contour>
      <point x="692" y="-190" type="curve" smooth="yes"/>
      <point x="191" y="-190"/>
      <point x="158" y="358"/>
      <point x="158" y="757" type="curve" smooth="yes"/>
      <point x="158" y="917" type="line" smooth="yes"/>
      <point x="158" y="1292"/>
      <point x="192" y="1938"/>
      <point x="688" y="1938" type="curve" smooth="yes"/>
      <point x="813" y="1938"/>
      <point x="927" y="1851"/>
      <point x="998" y="1755" type="curve"/>
      <point x="1122" y="1679"/>
      <point x="1170" y="968"/>
      <point x="1170" y="807" type="curve" smooth="yes"/>
      <point x="1170" y="470"/>
      <point x="1169" y="-190"/>
    </contour>
  </outline>
</glyph>
<glyph name="macron" format="1">
  <advance width="900"/>
  <unicode hex="00AF"/>
  <outline>
    <contour>
      <point x="403" y="1190" type="move" name="_top"/>
    </contour>
    <contour>
      <point x="428" y="1477" type="move" name="_mid"/>
    </contour>
    <contour>
      <point x="156" y="1486" type="curve" smooth="yes"/>
      <point x="156" y="1514"/>
      <point x="174" y="1532"/>
      <point x="202" y="1532" type="curve" smooth="yes"/>
      <point x="503" y="1532" type="line" smooth="yes"/>
      <point x="545" y="1532"/>
      <point x="587" y="1539"/>
      <point x="629" y="1539" type="curve" smooth="yes"/>
      <point x="671" y="1539"/>
      <point x="728" y="1532"/>
      <point x="728" y="1478" type="curve" smooth="yes"/>
      <point x="728" y="1444"/>
      <point x="700" y="1431"/>
      <point x="670" y="1431" type="curve" smooth="yes"/>
      <point x="526" y="1431"/>
      <point x="381" y="1421"/>
      <point x="238" y="1421" type="curve" smooth="yes"/>
      <point x="193" y="1421"/>
      <point x="156" y="1435"/>
    </contour>
  </outline>
</glyph>
<glyph name="periodcentered" format="1">
  <advance width="612"/>
  <unicode hex="00B7"/>
  <outline>
    <contour>
      <point x="222" y="706" type="curve" smooth="yes"/>
      <point x="222" y="747"/>
      <point x="258" y="785"/>
      <point x="299" y="785" type="curve" smooth="yes"/>
      <point x="338" y="785"/>
      <point x="372" y="746"/>
      <point x="372" y="708" type="curve" smooth="yes"/>
      <point x="372" y="661"/>
      <point x="336" y="633"/>
      <point x="291" y="633" type="curve" smooth="yes"/>
      <point x="253" y="633"/>
      <point x="222" y="669"/>
    </contour>
  </outline>
</glyph>
<glyph name="cedilla" format="1">
  <advance width="774"/>
  <unicode hex="00B8"/>
  <outline>
    <contour>
      <point x="304" y="0" type="move" name="_bot"/>
    </contour>
    <contour>
      <point x="367" y="-160" type="curve"/>
      <point x="349" y="-160"/>
      <point x="330" y="-167"/>
      <point x="312" y="-167" type="curve" smooth="yes"/>
      <point x="285" y="-167"/>
      <point x="268" y="-146"/>
      <point x="256" y="-126" type="curve"/>
      <point x="272" y="-89"/>
      <point x="273" y="-50"/>
      <point x="273" y="-9" type="curve" smooth="yes"/>
      <point x="273" y="14" type="line"/>
      <point x="332" y="22" type="line"/>
      <point x="326" y="-13"/>
      <point x="324" y="-48"/>
      <point x="324" y="-81" type="curve"/>
      <point x="441" y="-89"/>
      <point x="473" y="-187"/>
      <point x="473" y="-287" type="curve" smooth="yes"/>
      <point x="473" y="-342"/>
      <point x="408" y="-449"/>
      <point x="318" y="-449" type="curve" smooth="yes"/>
      <point x="287" y="-449"/>
      <point x="230" y="-433"/>
      <point x="230" y="-394" type="curve" smooth="yes"/>
      <point x="230" y="-380"/>
      <point x="236" y="-373"/>
      <point x="252" y="-373" type="curve" smooth="yes"/>
      <point x="277" y="-373"/>
      <point x="293" y="-394"/>
      <point x="318" y="-394" type="curve" smooth="yes"/>
      <point x="369" y="-394"/>
      <point x="398" y="-318"/>
      <point x="398" y="-251" type="curve" smooth="yes"/>
      <point x="398" y="-212"/>
      <point x="388" y="-176"/>
    </contour>
  </outline>
</glyph>
<glyph name="guillemotright" format="1">
  <advance width="954"/>
  <unicode hex="00BB"/>
  <outline>
    <contour>
      <point x="481" y="1490" type="curve" smooth="yes"/>
      <point x="485" y="1490"/>
      <point x="492" y="1487"/>
      <point x="496" y="1486" type="curve" smooth="yes"/>
      <point x="499" y="1486" type="line"/>
      <point x="499" y="1484" type="line"/>
      <point x="500" y="1485" type="line"/>
      <point x="528" y="1457"/>
      <point x="557" y="1402"/>
      <point x="562" y="1363" type="curve"/>
      <point x="600" y="1264"/>
      <point x="822" y="751"/>
      <point x="822" y="700" type="curve" smooth="yes"/>
      <point x="822" y="610"/>
      <point x="463" y="-56"/>
      <point x="419" y="-56" type="curve" smooth="yes"/>
      <point x="393" y="-56"/>
      <point x="354" y="-43"/>
      <point x="354" y="-10" type="curve" smooth="yes"/>
      <point x="354" y="68"/>
      <point x="678" y="528"/>
      <point x="712" y="689" type="curve"/>
      <point x="597" y="928"/>
      <point x="565" y="1211"/>
      <point x="416" y="1433" type="curve"/>
      <point x="419" y="1467"/>
      <point x="447" y="1490"/>
    </contour>
    <contour>
      <point x="198" y="-19" type="line"/>
      <point x="194" y="-19" type="line" smooth="yes"/>
      <point x="181" y="-19"/>
      <point x="169" y="-23"/>
      <point x="156" y="-23" type="curve" smooth="yes"/>
      <point x="119" y="-23"/>
      <point x="103" y="19"/>
      <point x="102" y="49" type="curve"/>
      <point x="127" y="69" type="line"/>
      <point x="163" y="136"/>
      <point x="437" y="680"/>
      <point x="437" y="702" type="curve" smooth="yes"/>
      <point x="437" y="908"/>
      <point x="182" y="1202"/>
      <point x="180" y="1411" type="curve"/>
      <point x="225" y="1446" type="line"/>
      <point x="235" y="1444" type="line"/>
      <point x="309" y="1410"/>
      <point x="311" y="1324"/>
      <point x="331" y="1255" type="curve" smooth="yes"/>
      <point x="369" y="1123"/>
      <point x="552" y="803"/>
      <point x="555" y="698" type="curve"/>
    </contour>
  </outline>
</glyph>
<glyph name="questiondown" format="1">
  <advance width="702"/>
  <unicode hex="00BF"/>
  <outline>
    <contour>
      <point x="501" y="18" type="line" smooth="yes"/>
      <point x="501" y="-69"/>
      <point x="471" y="-170"/>
      <point x="361" y="-170" type="curve" smooth="yes"/>
      <point x="201" y="-170"/>
      <point x="186" y="-11"/>
      <point x="186" y="117" type="curve" smooth="yes"/>
      <point x="186" y="432"/>
      <point x="311" y="554"/>
      <point x="311" y="1011" type="curve" smooth="yes"/>
      <point x="311" y="1045"/>
      <point x="311" y="1110"/>
      <point x="310" y="1148" type="curve"/>
      <point x="371" y="1148"/>
      <point x="342" y="1154"/>
      <point x="361" y="1154" type="curve" smooth="yes"/>
      <point x="382" y="1154"/>
      <point x="401" y="1145"/>
      <point x="411" y="1108" type="curve"/>
      <point x="411" y="745"/>
      <point x="296" y="428"/>
      <point x="296" y="119" type="curve" smooth="yes"/>
      <point x="296" y="80"/>
      <point x="298" y="-70"/>
      <point x="357" y="-70" type="curve" smooth="yes"/>
      <point x="390" y="-70"/>
      <point x="396" y="-20"/>
      <point x="396" y="21" type="curve" smooth="yes"/>
      <point x="396" y="36"/>
      <point x="390" y="78"/>
      <point x="382" y="132" type="curve" smooth="yes"/>
      <point x="382" y="136"/>
      <point x="419" y="174"/>
      <point x="443" y="174" type="curve" smooth="yes"/>
      <point x="498" y="174"/>
      <point x="501" y="91"/>
      <point x="501" y="37" type="curve" smooth="yes"/>
    </contour>
    <contour>
      <point x="433" y="1309" type="curve" smooth="yes"/>
      <point x="433" y="1270"/>
      <point x="393" y="1229"/>
      <point x="353" y="1229" type="curve" smooth="yes"/>
      <point x="316" y="1229"/>
      <point x="278" y="1275"/>
      <point x="278" y="1307" type="curve" smooth="yes"/>
      <point x="278" y="1362"/>
      <point x="313" y="1385"/>
      <point x="361" y="1385" type="curve" smooth="yes"/>
      <point x="401" y="1385"/>
      <point x="433" y="1346"/>
    </contour>
  </outline>
</glyph>
<glyph name="Oslash" format="1">
  <advance width="900"/>
  <unicode hex="00D8"/>
  <outline>
    <contour>
      <point x="324" y="47" type="curve"/>
      <point x="252" y="-280" type="line"/>
      <point x="207" y="-224" type="line"/>
      <point x="269" y="143" type="line"/>
      <point x="188" y="355"/>
      <point x="177" y="676"/>
      <point x="177" y="799" type="curve" smooth="yes"/>
      <point x="177" y="863"/>
      <point x="174" y="948"/>
      <point x="174" y="1039" type="curve" smooth="yes"/>
      <point x="174" y="1291"/>
      <point x="199" y="1585"/>
      <point x="393" y="1585" type="curve" smooth="yes"/>
      <point x="442" y="1585"/>
      <point x="484" y="1571"/>
      <point x="519" y="1545" type="curve"/>
      <point x="564" y="1799" type="line"/>
      <point x="643" y="1799" type="line"/>
      <point x="579" y="1481" type="line"/>
      <point x="694" y="1313"/>
      <point x="703" y="976"/>
      <point x="703" y="734" type="curve" smooth="yes"/>
      <point x="703" y="692"/>
      <point x="702" y="653"/>
      <point x="702" y="618" type="curve" smooth="yes"/>
      <point x="702" y="531"/>
      <point x="685" y="446"/>
      <point x="684" y="359" type="curve" smooth="yes"/>
      <point x="684" y="350" type="line"/>
      <point x="674" y="306"/>
      <point x="671" y="261"/>
      <point x="671" y="215" type="curve" smooth="yes"/>
      <point x="671" y="113"/>
      <point x="595" y="-57"/>
      <point x="475" y="-57" type="curve" smooth="yes"/>
      <point x="407" y="-57"/>
      <point x="365" y="-18"/>
    </contour>
    <contour>
      <point x="545" y="1299" type="curve"/>
      <point x="350" y="239" type="line"/>
      <point x="381" y="132"/>
      <point x="423" y="55"/>
      <point x="479" y="55" type="curve" smooth="yes"/>
      <point x="597" y="55"/>
      <point x="609" y="561"/>
      <point x="609" y="653" type="curve" smooth="yes"/>
      <point x="609" y="749"/>
      <point x="607" y="1087"/>
    </contour>
    <contour>
      <point x="403" y="1477" type="curve" smooth="yes"/>
      <point x="271" y="1477"/>
      <point x="269" y="979"/>
      <point x="269" y="861" type="curve" smooth="yes"/>
      <point x="269" y="852" type="line" smooth="yes"/>
      <point x="269" y="785"/>
      <point x="281" y="581"/>
      <point x="314" y="396" type="curve"/>
      <point x="496" y="1415" type="line"/>
      <point x="471" y="1454"/>
      <point x="440" y="1477"/>
    </contour>
  </outline>
</glyph>
<glyph name="Thorn" format="1">
  <advance width="756"/>
  <unicode hex="00DE"/>
  <outline>
    <contour>
      <point x="184" y="1297" type="curve"/>
      <point x="182" y="1487" type="line" smooth="yes"/>
      <point x="182" y="1522"/>
      <point x="194" y="1548"/>
      <point x="233" y="1548" type="curve" smooth="yes"/>
      <point x="293" y="1548"/>
      <point x="303" y="1483"/>
      <point x="303" y="1424" type="curve" smooth="yes"/>
      <point x="303" y="1396"/>
      <point x="301" y="1370"/>
      <point x="301" y="1353" type="curve"/>
      <point x="482" y="1327"/>
      <point x="563" y="1128"/>
      <point x="563" y="965" type="curve" smooth="yes"/>
      <point x="563" y="773"/>
      <point x="481" y="595"/>
      <point x="307" y="502" type="curve"/>
      <point x="308" y="359"/>
      <point x="323" y="217"/>
      <point x="323" y="74" type="curve" smooth="yes"/>
      <point x="323" y="29"/>
      <point x="306" y="-11"/>
      <point x="255" y="-11" type="curve" smooth="yes"/>
      <point x="219" y="-11"/>
      <point x="206" y="29"/>
      <point x="206" y="58" type="curve" smooth="yes"/>
      <point x="206" y="471"/>
      <point x="184" y="884"/>
    </contour>
    <contour>
      <point x="457" y="948" type="curve" smooth="yes"/>
      <point x="457" y="1117"/>
      <point x="433" y="1147"/>
      <point x="304" y="1249" type="curve"/>
      <point x="298" y="1249" type="line"/>
      <point x="298" y="1033"/>
      <point x="302" y="817"/>
      <point x="302" y="601" type="curve"/>
      <point x="406" y="699"/>
      <point x="457" y="804"/>
    </contour>
  </outline>
</glyph>
<glyph name="germandbls" format="1">
  <advance width="810"/>
  <unicode hex="00DF"/>
  <outline>
    <contour>
      <point x="455" y="49" type="curve" smooth="yes"/>
      <point x="451" y="48"/>
      <point x="444" y="45"/>
      <point x="440" y="45" type="curve" smooth="yes"/>
      <point x="421" y="45"/>
      <point x="391" y="57"/>
      <point x="391" y="81" type="curve" smooth="yes"/>
      <point x="391" y="134"/>
      <point x="538" y="240"/>
      <point x="538" y="409" type="curve" smooth="yes"/>
      <point x="538" y="789"/>
      <point x="360" y="776"/>
      <point x="360" y="854" type="curve" smooth="yes"/>
      <point x="360" y="898"/>
      <point x="478" y="1106"/>
      <point x="478" y="1274" type="curve" smooth="yes"/>
      <point x="478" y="1321"/>
      <point x="457" y="1473"/>
      <point x="388" y="1473" type="curve" smooth="yes"/>
      <point x="310" y="1473"/>
      <point x="290" y="1350"/>
      <point x="290" y="1294" type="curve" smooth="yes"/>
      <point x="290" y="878"/>
      <point x="321" y="463"/>
      <point x="321" y="46" type="curve" smooth="yes"/>
      <point x="321" y="-2"/>
      <point x="312" y="-47"/>
      <point x="255" y="-47" type="curve" smooth="yes"/>
      <point x="220" y="-47"/>
      <point x="195" y="-37"/>
      <point x="195" y="4" type="curve" smooth="yes"/>
      <point x="195" y="182"/>
      <point x="205" y="360"/>
      <point x="205" y="538" type="curve" smooth="yes"/>
      <point x="205" y="775"/>
      <point x="190" y="1012"/>
      <point x="190" y="1249" type="curve" smooth="yes"/>
      <point x="190" y="1375"/>
      <point x="222" y="1585"/>
      <point x="388" y="1585" type="curve" smooth="yes"/>
      <point x="545" y="1585"/>
      <point x="578" y="1367"/>
      <point x="578" y="1249" type="curve" smooth="yes"/>
      <point x="578" y="1109"/>
      <point x="524" y="977"/>
      <point x="452" y="859" type="curve"/>
      <point x="605" y="744"/>
      <point x="637" y="635"/>
      <point x="637" y="444" type="curve" smooth="yes"/>
      <point x="637" y="294"/>
      <point x="574" y="143"/>
    </contour>
  </outline>
</glyph>
<glyph name="dcroat" format="1">
  <advance width="882"/>
  <unicode hex="0111"/>
  <outline>
    <contour>
      <point x="346" y="755" type="curve"/>
      <point x="415" y="754"/>
      <point x="486" y="743"/>
      <point x="486" y="701" type="curve" smooth="yes"/>
      <point x="486" y="680"/>
      <point x="450" y="676"/>
      <point x="420" y="676" type="curve" smooth="yes"/>
      <point x="410" y="676"/>
      <point x="382" y="673"/>
      <point x="349" y="672" type="curve"/>
      <point x="358" y="495"/>
      <point x="369" y="318"/>
      <point x="369" y="141" type="curve" smooth="yes"/>
      <point x="369" y="92" type="line"/>
      <point x="573" y="92"/>
      <point x="591" y="480"/>
      <point x="591" y="612" type="curve" smooth="yes"/>
      <point x="591" y="784"/>
      <point x="585" y="1231"/>
      <point x="353" y="1258" type="curve"/>
      <point x="340" y="1188"/>
      <point x="338" y="1116"/>
      <point x="338" y="1045" type="curve" smooth="yes"/>
      <point x="338" y="948"/>
      <point x="342" y="852"/>
    </contour>
    <contour>
      <point x="232" y="901" type="curve" smooth="yes"/>
      <point x="232" y="1027"/>
      <point x="208" y="1184"/>
      <point x="208" y="1286" type="curve" smooth="yes"/>
      <point x="208" y="1322"/>
      <point x="246" y="1353"/>
      <point x="280" y="1353" type="curve" smooth="yes"/>
      <point x="530" y="1353"/>
      <point x="699" y="1054"/>
      <point x="699" y="808" type="curve" smooth="yes"/>
      <point x="699" y="778"/>
      <point x="695" y="741"/>
      <point x="695" y="705" type="curve" smooth="yes"/>
      <point x="695" y="592" type="line" smooth="yes"/>
      <point x="695" y="340"/>
      <point x="679" y="119"/>
      <point x="426" y="-12" type="curve"/>
      <point x="278" y="-12" type="line" smooth="yes"/>
      <point x="228" y="-12"/>
      <point x="226" y="190"/>
      <point x="226" y="256" type="curve" smooth="yes"/>
      <point x="226" y="257"/>
      <point x="228" y="534"/>
      <point x="230" y="673" type="curve"/>
      <point x="156" y="676"/>
      <point x="94" y="685"/>
      <point x="94" y="707" type="curve" smooth="yes"/>
      <point x="94" y="748"/>
      <point x="155" y="751"/>
      <point x="184" y="751" type="curve" smooth="yes"/>
      <point x="227" y="751"/>
      <point x="236" y="782"/>
      <point x="236" y="820" type="curve" smooth="yes"/>
      <point x="236" y="846"/>
      <point x="232" y="875"/>
    </contour>
  </outline>
</glyph>
<glyph name="hbar" format="1">
  <advance width="900"/>
  <unicode hex="0127"/>
  <outline>
    <contour>
      <point x="372" y="385" type="curve" smooth="yes"/>
      <point x="372" y="451"/>
      <point x="378" y="518"/>
      <point x="378" y="584" type="curve"/>
      <point x="360" y="599" type="line"/>
      <point x="332" y="599"/>
      <point x="286" y="590"/>
      <point x="246" y="590" type="curve" smooth="yes"/>
      <point x="199" y="590"/>
      <point x="158" y="602"/>
      <point x="158" y="655" type="curve" smooth="yes"/>
      <point x="158" y="682"/>
      <point x="175" y="708"/>
      <point x="204" y="708" type="curve" smooth="yes"/>
      <point x="244" y="708"/>
      <point x="286" y="701"/>
      <point x="326" y="701" type="curve" smooth="yes"/>
      <point x="342" y="701"/>
      <point x="356" y="702"/>
      <point x="372" y="705" type="curve"/>
      <point x="370" y="755"/>
      <point x="360" y="805"/>
      <point x="360" y="855" type="curve" smooth="yes"/>
      <point x="360" y="900"/>
      <point x="367" y="968"/>
      <point x="426" y="968" type="curve" smooth="yes"/>
      <point x="458" y="968"/>
      <point x="486" y="942"/>
      <point x="486" y="909" type="curve" smooth="yes"/>
      <point x="486" y="904" type="line"/>
      <point x="478" y="884" type="line"/>
      <point x="479" y="853"/>
      <point x="479" y="701"/>
      <point x="506" y="701" type="curve" smooth="yes"/>
      <point x="531" y="701"/>
      <point x="578" y="709"/>
      <point x="624" y="709" type="curve" smooth="yes"/>
      <point x="679" y="709"/>
      <point x="730" y="697"/>
      <point x="730" y="647" type="curve" smooth="yes"/>
      <point x="730" y="615"/>
      <point x="704" y="591"/>
      <point x="672" y="591" type="curve" smooth="yes"/>
      <point x="631" y="591"/>
      <point x="593" y="602"/>
      <point x="552" y="602" type="curve" smooth="yes"/>
      <point x="518" y="602"/>
      <point x="486" y="593"/>
      <point x="486" y="553" type="curve" smooth="yes"/>
      <point x="486" y="498"/>
      <point x="506" y="444"/>
      <point x="506" y="389" type="curve" smooth="yes"/>
      <point x="506" y="353"/>
      <point x="470" y="333"/>
      <point x="438" y="333" type="curve" smooth="yes"/>
      <point x="409" y="333"/>
      <point x="372" y="352"/>
    </contour>
    <contour>
      <point x="158" y="200" type="curve" smooth="yes"/>
      <point x="158" y="228"/>
      <point x="176" y="246"/>
      <point x="204" y="246" type="curve" smooth="yes"/>
      <point x="506" y="246" type="line" smooth="yes"/>
      <point x="548" y="246"/>
      <point x="590" y="253"/>
      <point x="632" y="253" type="curve" smooth="yes"/>
      <point x="674" y="253"/>
      <point x="730" y="246"/>
      <point x="730" y="192" type="curve" smooth="yes"/>
      <point x="730" y="158"/>
      <point x="702" y="145"/>
      <point x="672" y="145" type="curve" smooth="yes"/>
      <point x="528" y="145"/>
      <point x="383" y="135"/>
      <point x="240" y="135" type="curve" smooth="yes"/>
      <point x="195" y="135"/>
      <point x="158" y="149"/>
    </contour>
  </outline>
</glyph>
<glyph name="Lslash" format="1">
  <advance width="756"/>
  <unicode hex="0141"/>
  <outline>
    <contour>
      <point x="576" y="897" type="curve" smooth="yes"/>
      <point x="576" y="842"/>
      <point x="471" y="813"/>
      <point x="363" y="797" type="curve"/>
      <point x="363" y="795" type="line" smooth="yes"/>
      <point x="363" y="773"/>
      <point x="366" y="752"/>
      <point x="366" y="730" type="curve" smooth="yes"/>
      <point x="366" y="723"/>
      <point x="366" y="717"/>
      <point x="365" y="710" type="curve" smooth="yes"/>
      <point x="365" y="701" type="line"/>
      <point x="373" y="523"/>
      <point x="373" y="345"/>
      <point x="373" y="167" type="curve" smooth="yes"/>
      <point x="373" y="115" type="line"/>
      <point x="529" y="115" type="line"/>
      <point x="551" y="100"/>
      <point x="573" y="83"/>
      <point x="573" y="54" type="curve" smooth="yes"/>
      <point x="573" y="25"/>
      <point x="552" y="-4"/>
      <point x="521" y="-4" type="curve" smooth="yes"/>
      <point x="511" y="-4"/>
      <point x="499" y="1"/>
      <point x="490" y="3" type="curve" smooth="yes"/>
      <point x="477" y="0"/>
      <point x="464" y="-1"/>
      <point x="451" y="-1" type="curve" smooth="yes"/>
      <point x="429" y="-1"/>
      <point x="407" y="2"/>
      <point x="385" y="2" type="curve" smooth="yes"/>
      <point x="368" y="2"/>
      <point x="342" y="5"/>
      <point x="317" y="5" type="curve" smooth="yes"/>
      <point x="288" y="5"/>
      <point x="258" y="22"/>
      <point x="258" y="42" type="curve" smooth="yes"/>
      <point x="258" y="73"/>
      <point x="271" y="101"/>
      <point x="271" y="132" type="curve" smooth="yes"/>
      <point x="271" y="344"/>
      <point x="262" y="556"/>
      <point x="253" y="768" type="curve"/>
      <point x="229" y="757"/>
      <point x="210" y="754"/>
      <point x="201" y="754" type="curve" smooth="yes"/>
      <point x="168" y="754"/>
      <point x="134" y="774"/>
      <point x="134" y="803" type="curve" smooth="yes"/>
      <point x="134" y="838"/>
      <point x="187" y="860"/>
      <point x="248" y="873" type="curve"/>
      <point x="239" y="1092"/>
      <point x="230" y="1310"/>
      <point x="230" y="1529" type="curve" smooth="yes"/>
      <point x="230" y="1556"/>
      <point x="255" y="1571"/>
      <point x="280" y="1571" type="curve" smooth="yes"/>
      <point x="313" y="1571"/>
      <point x="342" y="1546"/>
      <point x="342" y="1512" type="curve" smooth="yes"/>
      <point x="342" y="1309"/>
      <point x="357" y="1106"/>
      <point x="362" y="904" type="curve"/>
      <point x="442" y="939"/>
      <point x="510" y="949"/>
      <point x="538" y="949" type="curve" smooth="yes"/>
      <point x="556" y="949"/>
      <point x="576" y="929"/>
    </contour>
  </outline>
</glyph>
<glyph name="oe" format="1">
  <advance width="1008"/>
  <unicode hex="0153"/>
  <outline>
    <contour>
      <point x="398" y="1269" type="curve" smooth="yes"/>
      <point x="291" y="1269"/>
      <point x="275" y="1078"/>
      <point x="275" y="909" type="curve" smooth="yes"/>
      <point x="275" y="835"/>
      <point x="278" y="765"/>
      <point x="278" y="717" type="curve" smooth="yes"/>
      <point x="278" y="613"/>
      <point x="289" y="47"/>
      <point x="423" y="47" type="curve" smooth="yes"/>
      <point x="580" y="47"/>
      <point x="594" y="454"/>
      <point x="594" y="564" type="curve" smooth="yes"/>
      <point x="594" y="723"/>
      <point x="568" y="882"/>
      <point x="567" y="1041" type="curve" smooth="yes"/>
      <point x="567" y="1077" type="line" smooth="yes"/>
      <point x="564" y="1171"/>
      <point x="500" y="1269"/>
    </contour>
    <contour>
      <point x="707" y="1256" type="curve"/>
      <point x="707" y="1148" type="line" smooth="yes"/>
      <point x="707" y="1145"/>
      <point x="698" y="961"/>
      <point x="698" y="867" type="curve" smooth="yes"/>
      <point x="698" y="840"/>
      <point x="701" y="818"/>
      <point x="704" y="797" type="curve"/>
      <point x="727" y="797"/>
      <point x="771" y="801"/>
      <point x="798" y="801" type="curve" smooth="yes"/>
      <point x="839" y="801"/>
      <point x="876" y="792"/>
      <point x="876" y="769" type="curve" smooth="yes"/>
      <point x="876" y="744"/>
      <point x="859" y="718"/>
      <point x="831" y="718" type="curve" smooth="yes"/>
      <point x="701" y="718" type="line"/>
      <point x="705" y="666"/>
      <point x="707" y="615"/>
      <point x="707" y="563" type="curve" smooth="yes"/>
      <point x="707" y="440"/>
      <point x="698" y="315"/>
      <point x="698" y="192" type="curve" smooth="yes"/>
      <point x="698" y="133"/>
      <point x="701" y="64"/>
      <point x="702" y="64" type="curve" smooth="yes"/>
      <point x="736" y="64"/>
      <point x="795" y="69"/>
      <point x="853" y="69" type="curve" smooth="yes"/>
      <point x="886" y="69"/>
      <point x="918" y="60"/>
      <point x="918" y="19" type="curve" smooth="yes"/>
      <point x="918" y="-16"/>
      <point x="875" y="-27"/>
      <point x="843" y="-27" type="curve" smooth="yes"/>
      <point x="670" y="-27" type="line" smooth="yes"/>
      <point x="634" y="-27"/>
      <point x="600" y="1"/>
      <point x="598" y="36" type="curve" smooth="yes"/>
      <point x="598" y="127" type="line"/>
      <point x="575" y="16"/>
      <point x="505" y="-38"/>
      <point x="431" y="-38" type="curve" smooth="yes"/>
      <point x="198" y="-38"/>
      <point x="167" y="410"/>
      <point x="167" y="626" type="curve" smooth="yes"/>
      <point x="167" y="658"/>
      <point x="169" y="677"/>
      <point x="169" y="704" type="curve" smooth="yes"/>
      <point x="169" y="711"/>
      <point x="168" y="714"/>
      <point x="166" y="714" type="curve" smooth="yes"/>
      <point x="166" y="751" type="line" smooth="yes"/>
      <point x="166" y="887"/>
      <point x="174" y="1348"/>
      <point x="405" y="1348" type="curve" smooth="yes"/>
      <point x="500" y="1348"/>
      <point x="577" y="1269"/>
      <point x="610" y="1178" type="curve"/>
      <point x="610" y="1332"/>
      <point x="628" y="1352"/>
      <point x="674" y="1352" type="curve" smooth="yes"/>
      <point x="716" y="1352"/>
      <point x="919" y="1323"/>
      <point x="919" y="1261" type="curve" smooth="yes"/>
      <point x="919" y="1242"/>
      <point x="907" y="1214"/>
      <point x="879" y="1214" type="curve" smooth="yes"/>
      <point x="823" y="1214"/>
      <point x="763" y="1250"/>
    </contour>
  </outline>
</glyph>
<glyph name="dotlessj" format="1">
  <advance width="792"/>
  <unicode hex="0237"/>
  <outline>
    <contour>
      <point x="483" y="158" type="line"/>
      <point x="407" y="33"/>
      <point x="495" y="-254"/>
      <point x="237" y="-254" type="curve" smooth="yes"/>
      <point x="213" y="-254" type="line"/>
      <point x="152" y="-193" type="line"/>
      <point x="150" y="-174" type="line"/>
      <point x="150" y="-133"/>
      <point x="277" y="-64"/>
      <point x="312" y="-46" type="curve"/>
      <point x="358" y="8"/>
      <point x="371" y="117"/>
      <point x="371" y="187" type="curve" smooth="yes"/>
      <point x="371" y="536"/>
      <point x="353" y="884"/>
      <point x="353" y="1233" type="curve"/>
      <point x="348" y="1242" type="line"/>
      <point x="306" y="1247"/>
      <point x="191" y="1252"/>
      <point x="191" y="1312" type="curve" smooth="yes"/>
      <point x="191" y="1342"/>
      <point x="234" y="1359"/>
      <point x="258" y="1359" type="curve" smooth="yes"/>
      <point x="318" y="1359"/>
      <point x="623" y="1327"/>
      <point x="623" y="1253" type="curve" smooth="yes"/>
      <point x="623" y="1222"/>
      <point x="595" y="1205"/>
      <point x="567" y="1205" type="curve" smooth="yes"/>
      <point x="532" y="1205"/>
      <point x="498" y="1219"/>
      <point x="463" y="1225" type="curve"/>
      <point x="462" y="1208" type="line"/>
      <point x="462" y="933"/>
      <point x="483" y="657"/>
      <point x="483" y="382" type="curve" smooth="yes"/>
    </contour>
  </outline>
</glyph>
<glyph name="uni02C9" format="1">
  <advance width="600"/>
  <unicode hex="02C9"/>
  <outline>
    <contour>
      <point x="309" y="912" type="move" name="_top"/>
    </contour>
    <contour>
      <point x="510" y="1120" type="curve" smooth="yes"/>
      <point x="508" y="1106"/>
      <point x="491" y="1063"/>
      <point x="419" y="1063" type="curve" smooth="yes"/>
      <point x="181" y="1063" type="line" smooth="yes"/>
      <point x="140" y="1063"/>
      <point x="110" y="1090"/>
      <point x="110" y="1115" type="curve" smooth="yes"/>
      <point x="110" y="1135"/>
      <point x="129" y="1153"/>
      <point x="176" y="1153" type="curve" smooth="yes"/>
      <point x="402" y="1153" type="line" smooth="yes"/>
      <point x="486" y="1153"/>
      <point x="510" y="1153"/>
    </contour>
  </outline>
</glyph>
<glyph name="ring" format="1">
  <advance width="882"/>
  <unicode hex="02DA"/>
  <outline>
    <contour>
      <point x="426" y="1190" type="move" name="_top"/>
    </contour>
    <contour>
      <point x="444" y="1553" type="move" name="top"/>
    </contour>
    <contour>
      <point x="436" y="1620" type="curve" smooth="yes"/>
      <point x="362" y="1620"/>
      <point x="341" y="1548"/>
      <point x="341" y="1486" type="curve" smooth="yes"/>
      <point x="341" y="1453"/>
      <point x="383" y="1401"/>
      <point x="434" y="1401" type="curve" smooth="yes"/>
      <point x="538" y="1401"/>
      <point x="558" y="1488"/>
      <point x="558" y="1523" type="curve" smooth="yes"/>
      <point x="558" y="1558"/>
      <point x="534" y="1620"/>
    </contour>
    <contour>
      <point x="263" y="1527" type="curve" smooth="yes"/>
      <point x="263" y="1622"/>
      <point x="327" y="1694"/>
      <point x="425" y="1694" type="curve" smooth="yes"/>
      <point x="591" y="1694"/>
      <point x="631" y="1590"/>
      <point x="631" y="1528" type="curve" smooth="yes"/>
      <point x="631" y="1469"/>
      <point x="597" y="1322"/>
      <point x="425" y="1322" type="curve" smooth="yes"/>
      <point x="292" y="1322"/>
      <point x="263" y="1447"/>
    </contour>
  </outline>
</glyph>
<glyph name="hungarumlaut" format="1">
  <advance width="954"/>
  <unicode hex="02DD"/>
  <outline>
    <contour>
      <point x="373" y="1190" type="move" name="_top"/>
    </contour>
    <contour>
      <point x="466" y="1323" type="curve"/>
      <point x="452" y="1323"/>
      <point x="446" y="1336"/>
      <point x="446" y="1350" type="curve" smooth="yes"/>
      <point x="446" y="1400"/>
      <point x="783" y="1750"/>
      <point x="830" y="1750" type="curve" smooth="yes"/>
      <point x="860" y="1750"/>
      <point x="885" y="1726"/>
      <point x="892" y="1702" type="curve"/>
      <point x="864" y="1628"/>
      <point x="532" y="1359"/>
    </contour>
    <contour>
      <point x="188" y="1310" type="curve"/>
      <point x="188" y="1323" type="line"/>
      <point x="193" y="1389"/>
      <point x="452" y="1750"/>
      <point x="490" y="1750" type="curve" smooth="yes"/>
      <point x="515" y="1750"/>
      <point x="538" y="1734"/>
      <point x="538" y="1712" type="curve" smooth="yes"/>
      <point x="538" y="1613"/>
      <point x="248" y="1327"/>
    </contour>
  </outline>
</glyph>
<glyph name="uni0307" format="1">
  <advance width="612"/>
  <unicode hex="0307"/>
  <outline>
    <contour>
      <point x="309" y="912" type="move" name="_top"/>
    </contour>
    <contour>
      <point x="244" y="1193" type="curve" smooth="yes"/>
      <point x="244" y="1234"/>
      <point x="280" y="1272"/>
      <point x="321" y="1272" type="curve" smooth="yes"/>
      <point x="360" y="1272"/>
      <point x="394" y="1233"/>
      <point x="394" y="1195" type="curve" smooth="yes"/>
      <point x="394" y="1148"/>
      <point x="358" y="1120"/>
      <point x="313" y="1120" type="curve" smooth="yes"/>
      <point x="275" y="1120"/>
      <point x="244" y="1156"/>
    </contour>
  </outline>
</glyph>
<glyph name="uni0312" format="1">
  <advance width="600"/>
  <unicode hex="0312"/>
  <outline>
    <contour>
      <point x="298" y="872" type="move" name="_top"/>
    </contour>
    <contour>
      <point x="463" y="1410" type="curve" smooth="yes"/>
      <point x="467" y="1413"/>
      <point x="472" y="1415"/>
      <point x="476" y="1415" type="curve" smooth="yes"/>
      <point x="480" y="1415" type="line" smooth="yes"/>
      <point x="489" y="1415"/>
      <point x="497" y="1409"/>
      <point x="497" y="1399" type="curve" smooth="yes"/>
      <point x="497" y="1382"/>
      <point x="384" y="1159"/>
      <point x="314" y="1046" type="curve" smooth="yes"/>
      <point x="312" y="1043"/>
      <point x="309" y="1042"/>
      <point x="305" y="1042" type="curve" smooth="yes"/>
      <point x="289" y="1042"/>
      <point x="258" y="1061"/>
      <point x="258" y="1087" type="curve" smooth="yes"/>
      <point x="258" y="1189"/>
      <point x="419" y="1378"/>
    </contour>
  </outline>
</glyph>
<glyph name="uni0326" format="1">
  <advance width="684"/>
  <unicode hex="0326"/>
  <outline>
    <contour>
      <point x="385" y="0" type="move" name="_bot"/>
    </contour>
    <contour>
      <point x="220" y="-538" type="curve" smooth="yes"/>
      <point x="216" y="-541"/>
      <point x="211" y="-543"/>
      <point x="207" y="-543" type="curve" smooth="yes"/>
      <point x="203" y="-543" type="line" smooth="yes"/>
      <point x="194" y="-543"/>
      <point x="186" y="-537"/>
      <point x="186" y="-527" type="curve" smooth="yes"/>
      <point x="186" y="-510"/>
      <point x="299" y="-287"/>
      <point x="369" y="-174" type="curve" smooth="yes"/>
      <point x="371" y="-171"/>
      <point x="374" y="-170"/>
      <point x="378" y="-170" type="curve" smooth="yes"/>
      <point x="394" y="-170"/>
      <point x="425" y="-189"/>
      <point x="425" y="-215" type="curve" smooth="yes"/>
      <point x="425" y="-317"/>
      <point x="264" y="-506"/>
    </contour>
  </outline>
</glyph>
<glyph name="endash" format="1">
  <advance width="972"/>
  <unicode hex="2013"/>
  <outline>
    <contour>
      <point x="359" y="737" type="line" smooth="yes"/>
      <point x="388" y="737"/>
      <point x="468" y="741"/>
      <point x="554" y="741" type="curve" smooth="yes"/>
      <point x="687" y="741"/>
      <point x="835" y="731"/>
      <point x="835" y="683" type="curve" smooth="yes"/>
      <point x="835" y="654"/>
      <point x="815" y="636"/>
      <point x="787" y="636" type="curve" smooth="yes"/>
      <point x="599" y="636"/>
      <point x="412" y="646"/>
      <point x="224" y="646" type="curve" smooth="yes"/>
      <point x="193" y="646"/>
      <point x="142" y="649"/>
      <point x="142" y="691" type="curve" smooth="yes"/>
      <point x="142" y="719"/>
      <point x="160" y="737"/>
      <point x="188" y="737" type="curve" smooth="yes"/>
    </contour>
  </outline>
</glyph>
<glyph name="emdash" format="1">
  <advance width="1116"/>
  <unicode hex="2014"/>
  <outline>
    <contour>
      <point x="625" y="779" type="line" smooth="yes"/>
      <point x="647" y="779"/>
      <point x="709" y="782"/>
      <point x="777" y="782" type="curve" smooth="yes"/>
      <point x="888" y="782"/>
      <point x="1016" y="773"/>
      <point x="1016" y="725" type="curve" smooth="yes"/>
      <point x="1016" y="683"/>
      <point x="931" y="673"/>
      <point x="844" y="673" type="curve" smooth="yes"/>
      <point x="771" y="673"/>
      <point x="698" y="680"/>
      <point x="671" y="680" type="curve" smooth="yes"/>
      <point x="303" y="677" type="line" smooth="yes"/>
      <point x="285" y="677"/>
      <point x="256" y="674"/>
      <point x="225" y="674" type="curve" smooth="yes"/>
      <point x="166" y="674"/>
      <point x="102" y="683"/>
      <point x="102" y="733" type="curve" smooth="yes"/>
      <point x="102" y="761"/>
      <point x="120" y="779"/>
      <point x="148" y="779" type="curve" smooth="yes"/>
    </contour>
  </outline>
</glyph>
<glyph name="uni2015" format="1">
  <advance width="4096"/>
  <unicode hex="2015"/>
  <outline>
    <contour>
      <point x="174" y="656" type="line"/>
      <point x="174" y="798" type="line"/>
      <point x="3920" y="798" type="line"/>
      <point x="3920" y="656" type="line"/>
    </contour>
  </outline>
</glyph>
<glyph name="quoteright" format="1">
  <advance width="612"/>
  <unicode hex="2019"/>
  <outline>
    <contour>
      <point x="224" y="1081" type="curve" smooth="yes"/>
      <point x="211" y="1084"/>
      <point x="206" y="1098"/>
      <point x="206" y="1119" type="curve" smooth="yes"/>
      <point x="206" y="1167"/>
      <point x="278" y="1568"/>
      <point x="375" y="1568" type="curve" smooth="yes"/>
      <point x="403" y="1568"/>
      <point x="412" y="1547"/>
      <point x="412" y="1523" type="curve" smooth="yes"/>
      <point x="412" y="1345"/>
      <point x="303" y="1081"/>
    </contour>
  </outline>
</glyph>
<glyph name="quotesinglbase" format="1">
  <advance width="684"/>
  <unicode hex="201A"/>
  <outline>
    <contour>
      <point x="272" y="-333" type="curve" smooth="yes"/>
      <point x="259" y="-330"/>
      <point x="254" y="-316"/>
      <point x="254" y="-295" type="curve" smooth="yes"/>
      <point x="254" y="-247"/>
      <point x="326" y="154"/>
      <point x="423" y="154" type="curve" smooth="yes"/>
      <point x="451" y="154"/>
      <point x="460" y="133"/>
      <point x="460" y="109" type="curve" smooth="yes"/>
      <point x="460" y="-69"/>
      <point x="351" y="-333"/>
    </contour>
  </outline>
</glyph>
<glyph name="quotedblleft" format="1">
  <advance width="792"/>
  <unicode hex="201C"/>
  <outline>
    <contour>
      <point x="627" y="1578" type="curve" smooth="yes"/>
      <point x="640" y="1575"/>
      <point x="645" y="1562"/>
      <point x="645" y="1541" type="curve" smooth="yes"/>
      <point x="645" y="1493"/>
      <point x="573" y="1091"/>
      <point x="476" y="1091" type="curve" smooth="yes"/>
      <point x="448" y="1091"/>
      <point x="438" y="1112"/>
      <point x="438" y="1136" type="curve" smooth="yes"/>
      <point x="438" y="1314"/>
      <point x="548" y="1578"/>
    </contour>
    <contour>
      <point x="203" y="1081" type="curve" smooth="yes"/>
      <point x="190" y="1081"/>
      <point x="182" y="1097"/>
      <point x="182" y="1126" type="curve" smooth="yes"/>
      <point x="182" y="1307"/>
      <point x="317" y="1577"/>
      <point x="374" y="1577" type="curve" smooth="yes"/>
      <point x="389" y="1577"/>
      <point x="396" y="1561"/>
      <point x="396" y="1536" type="curve" smooth="yes"/>
      <point x="396" y="1433"/>
      <point x="323" y="1081"/>
    </contour>
  </outline>
</glyph>
<glyph name="quotedblright" format="1">
  <advance width="810"/>
  <unicode hex="201D"/>
  <outline>
    <contour>
      <point x="200" y="1081" type="curve" smooth="yes"/>
      <point x="187" y="1084"/>
      <point x="182" y="1098"/>
      <point x="182" y="1119" type="curve" smooth="yes"/>
      <point x="182" y="1167"/>
      <point x="254" y="1568"/>
      <point x="351" y="1568" type="curve" smooth="yes"/>
      <point x="379" y="1568"/>
      <point x="388" y="1547"/>
      <point x="388" y="1523" type="curve" smooth="yes"/>
      <point x="388" y="1345"/>
      <point x="279" y="1081"/>
    </contour>
    <contour>
      <point x="634" y="1578" type="curve" smooth="yes"/>
      <point x="647" y="1578"/>
      <point x="655" y="1562"/>
      <point x="655" y="1533" type="curve" smooth="yes"/>
      <point x="655" y="1352"/>
      <point x="520" y="1082"/>
      <point x="463" y="1082" type="curve" smooth="yes"/>
      <point x="448" y="1082"/>
      <point x="441" y="1098"/>
      <point x="441" y="1123" type="curve"/>
      <point x="501" y="1377"/>
      <point x="489" y="1578"/>
    </contour>
  </outline>
</glyph>
<glyph name="quotedblbase" format="1">
  <advance width="810"/>
  <unicode hex="201E"/>
  <outline>
    <contour>
      <point x="144" y="-371" type="curve" smooth="yes"/>
      <point x="131" y="-368"/>
      <point x="126" y="-354"/>
      <point x="126" y="-333" type="curve" smooth="yes"/>
      <point x="126" y="-285"/>
      <point x="198" y="116"/>
      <point x="295" y="116" type="curve" smooth="yes"/>
      <point x="323" y="116"/>
      <point x="332" y="95"/>
      <point x="332" y="71" type="curve" smooth="yes"/>
      <point x="332" y="-107"/>
      <point x="223" y="-371"/>
    </contour>
    <contour>
      <point x="588" y="126" type="curve" smooth="yes"/>
      <point x="601" y="126"/>
      <point x="609" y="110"/>
      <point x="609" y="81" type="curve" smooth="yes"/>
      <point x="609" y="-100"/>
      <point x="474" y="-370"/>
      <point x="417" y="-370" type="curve" smooth="yes"/>
      <point x="402" y="-370"/>
      <point x="395" y="-354"/>
      <point x="395" y="-329" type="curve" smooth="yes"/>
      <point x="395" y="-226"/>
      <point x="468" y="126"/>
    </contour>
  </outline>
</glyph>
<glyph name="daggerdbl" format="1">
  <advance width="900"/>
  <unicode hex="2021"/>
  <outline>
    <contour>
      <point x="372" y="385" type="curve" smooth="yes"/>
      <point x="372" y="451"/>
      <point x="359" y="518"/>
      <point x="359" y="584" type="curve" smooth="yes"/>
      <point x="359" y="599" type="line"/>
      <point x="331" y="599"/>
      <point x="285" y="590"/>
      <point x="245" y="590" type="curve" smooth="yes"/>
      <point x="198" y="590"/>
      <point x="158" y="602"/>
      <point x="158" y="655" type="curve" smooth="yes"/>
      <point x="158" y="682"/>
      <point x="175" y="708"/>
      <point x="204" y="708" type="curve" smooth="yes"/>
      <point x="244" y="708"/>
      <point x="285" y="701"/>
      <point x="325" y="701" type="curve" smooth="yes"/>
      <point x="341" y="701"/>
      <point x="356" y="702"/>
      <point x="372" y="705" type="curve"/>
      <point x="370" y="755"/>
      <point x="360" y="805"/>
      <point x="360" y="855" type="curve" smooth="yes"/>
      <point x="360" y="900"/>
      <point x="367" y="968"/>
      <point x="426" y="968" type="curve" smooth="yes"/>
      <point x="458" y="968"/>
      <point x="478" y="942"/>
      <point x="478" y="909" type="curve" smooth="yes"/>
      <point x="478" y="884" type="line" smooth="yes"/>
      <point x="479" y="853"/>
      <point x="478" y="701"/>
      <point x="505" y="701" type="curve" smooth="yes"/>
      <point x="530" y="701"/>
      <point x="578" y="709"/>
      <point x="624" y="709" type="curve" smooth="yes"/>
      <point x="679" y="709"/>
      <point x="730" y="697"/>
      <point x="730" y="647" type="curve" smooth="yes"/>
      <point x="730" y="615"/>
      <point x="704" y="591"/>
      <point x="672" y="591" type="curve" smooth="yes"/>
      <point x="631" y="591"/>
      <point x="592" y="602"/>
      <point x="551" y="602" type="curve" smooth="yes"/>
      <point x="517" y="602"/>
      <point x="486" y="598"/>
      <point x="486" y="596" type="curve" smooth="yes"/>
      <point x="486" y="546"/>
      <point x="502" y="270"/>
      <point x="518" y="270" type="curve" smooth="yes"/>
      <point x="543" y="270"/>
      <point x="591" y="278"/>
      <point x="637" y="278" type="curve" smooth="yes"/>
      <point x="692" y="278"/>
      <point x="743" y="266"/>
      <point x="743" y="216" type="curve" smooth="yes"/>
      <point x="743" y="184"/>
      <point x="717" y="160"/>
      <point x="685" y="160" type="curve" smooth="yes"/>
      <point x="644" y="160"/>
      <point x="605" y="171"/>
      <point x="564" y="171" type="curve" smooth="yes"/>
      <point x="530" y="171"/>
      <point x="499" y="169"/>
      <point x="499" y="162" type="curve" smooth="yes"/>
      <point x="499" y="94"/>
      <point x="518" y="26"/>
      <point x="518" y="-42" type="curve" smooth="yes"/>
      <point x="518" y="-78"/>
      <point x="483" y="-98"/>
      <point x="451" y="-98" type="curve" smooth="yes"/>
      <point x="422" y="-98"/>
      <point x="385" y="-79"/>
      <point x="385" y="-46" type="curve" smooth="yes"/>
      <point x="385" y="20"/>
      <point x="372" y="87"/>
      <point x="372" y="153" type="curve" smooth="yes"/>
      <point x="372" y="168" type="line"/>
      <point x="344" y="168"/>
      <point x="298" y="159"/>
      <point x="258" y="159" type="curve" smooth="yes"/>
      <point x="211" y="159"/>
      <point x="171" y="171"/>
      <point x="171" y="224" type="curve" smooth="yes"/>
      <point x="171" y="251"/>
      <point x="188" y="277"/>
      <point x="217" y="277" type="curve" smooth="yes"/>
      <point x="257" y="277"/>
      <point x="298" y="270"/>
      <point x="338" y="270" type="curve" smooth="yes"/>
      <point x="354" y="270"/>
      <point x="369" y="271"/>
      <point x="385" y="274" type="curve"/>
      <point x="384" y="310"/>
      <point x="372" y="352"/>
    </contour>
  </outline>
</glyph>
<glyph name="ellipsis" format="1">
  <advance width="1098"/>
  <unicode hex="2026"/>
  <outline>
    <contour>
      <point x="174" y="41" type="curve" smooth="yes"/>
      <point x="174" y="82"/>
      <point x="210" y="120"/>
      <point x="251" y="120" type="curve" smooth="yes"/>
      <point x="290" y="120"/>
      <point x="324" y="81"/>
      <point x="324" y="43" type="curve" smooth="yes"/>
      <point x="324" y="-4"/>
      <point x="288" y="-32"/>
      <point x="243" y="-32" type="curve" smooth="yes"/>
      <point x="205" y="-32"/>
      <point x="174" y="4"/>
    </contour>
    <contour>
      <point x="469" y="41" type="curve" smooth="yes"/>
      <point x="469" y="82"/>
      <point x="505" y="120"/>
      <point x="546" y="120" type="curve" smooth="yes"/>
      <point x="585" y="120"/>
      <point x="619" y="81"/>
      <point x="619" y="43" type="curve" smooth="yes"/>
      <point x="619" y="-4"/>
      <point x="583" y="-32"/>
      <point x="538" y="-32" type="curve" smooth="yes"/>
      <point x="500" y="-32"/>
      <point x="469" y="4"/>
    </contour>
    <contour>
      <point x="764" y="41" type="curve" smooth="yes"/>
      <point x="764" y="82"/>
      <point x="800" y="120"/>
      <point x="841" y="120" type="curve" smooth="yes"/>
      <point x="880" y="120"/>
      <point x="914" y="81"/>
      <point x="914" y="43" type="curve" smooth="yes"/>
      <point x="914" y="-4"/>
      <point x="878" y="-32"/>
      <point x="833" y="-32" type="curve" smooth="yes"/>
      <point x="795" y="-32"/>
      <point x="764" y="4"/>
    </contour>
  </outline>
</glyph>
<glyph name="Euro" format="1">
  <advance width="918"/>
  <unicode hex="20AC"/>
  <outline>
    <contour>
      <point x="505" y="700" type="curve" smooth="yes"/>
      <point x="505" y="657"/>
      <point x="408" y="652"/>
      <point x="347" y="652" type="curve" smooth="yes"/>
      <point x="330" y="652"/>
      <point x="315" y="653"/>
      <point x="307" y="653" type="curve"/>
      <point x="313" y="578"/>
      <point x="342" y="209"/>
      <point x="376" y="160" type="curve" smooth="yes"/>
      <point x="410" y="111"/>
      <point x="473" y="93"/>
      <point x="530" y="93" type="curve" smooth="yes"/>
      <point x="580" y="93"/>
      <point x="629" y="113"/>
      <point x="662" y="152" type="curve"/>
      <point x="684" y="152"/>
      <point x="706" y="155"/>
      <point x="727" y="162" type="curve"/>
      <point x="754" y="135" type="line"/>
      <point x="754" y="4"/>
      <point x="609" y="-33"/>
      <point x="503" y="-33" type="curve" smooth="yes"/>
      <point x="193" y="-33"/>
      <point x="213" y="450"/>
      <point x="201" y="654" type="curve"/>
      <point x="122" y="657" type="line"/>
      <point x="114" y="664"/>
      <point x="109" y="677"/>
      <point x="109" y="687" type="curve" smooth="yes"/>
      <point x="109" y="721"/>
      <point x="151" y="724"/>
      <point x="181" y="724" type="curve" smooth="yes"/>
      <point x="197" y="724" type="line"/>
      <point x="193" y="808" type="line"/>
      <point x="121" y="808" type="line"/>
      <point x="107" y="813"/>
      <point x="102" y="833"/>
      <point x="102" y="845" type="curve" smooth="yes"/>
      <point x="102" y="876"/>
      <point x="121" y="877"/>
      <point x="147" y="877" type="curve" smooth="yes"/>
      <point x="192" y="877" type="line"/>
      <point x="192" y="930"/>
      <point x="190" y="984"/>
      <point x="190" y="1038" type="curve" smooth="yes"/>
      <point x="190" y="1101"/>
      <point x="193" y="1164"/>
      <point x="204" y="1226" type="curve"/>
      <point x="200" y="1248"/>
      <point x="198" y="1269"/>
      <point x="198" y="1289" type="curve" smooth="yes"/>
      <point x="198" y="1462"/>
      <point x="346" y="1565"/>
      <point x="524" y="1565" type="curve" smooth="yes"/>
      <point x="580" y="1565"/>
      <point x="667" y="1531"/>
      <point x="667" y="1465" type="curve" smooth="yes"/>
      <point x="667" y="1434"/>
      <point x="638" y="1419"/>
      <point x="610" y="1419" type="curve" smooth="yes"/>
      <point x="573" y="1419"/>
      <point x="535" y="1448"/>
      <point x="509" y="1448" type="curve" smooth="yes"/>
      <point x="312" y="1448"/>
      <point x="307" y="1294"/>
      <point x="307" y="1140" type="curve" smooth="yes"/>
      <point x="307" y="1047"/>
      <point x="306" y="972"/>
      <point x="296" y="879" type="curve"/>
      <point x="305" y="879"/>
      <point x="331" y="880"/>
      <point x="361" y="880" type="curve" smooth="yes"/>
      <point x="420" y="880"/>
      <point x="498" y="876"/>
      <point x="498" y="852" type="curve" smooth="yes"/>
      <point x="498" y="841"/>
      <point x="492" y="828"/>
      <point x="484" y="821" type="curve"/>
      <point x="422" y="814"/>
      <point x="359" y="813"/>
      <point x="296" y="811" type="curve"/>
      <point x="301" y="725" type="line"/>
      <point x="364" y="726"/>
      <point x="428" y="726"/>
      <point x="491" y="731" type="curve"/>
      <point x="499" y="724"/>
      <point x="505" y="711"/>
    </contour>
  </outline>
</glyph>
<glyph name="trademark" format="1">
  <advance width="1098"/>
  <unicode hex="2122"/>
  <outline>
    <contour>
      <point x="205" y="787" type="line" smooth="yes"/>
      <point x="205" y="924"/>
      <point x="195" y="1061"/>
      <point x="195" y="1198" type="curve" smooth="yes"/>
      <point x="195" y="1266"/>
      <point x="201" y="1332"/>
      <point x="201" y="1400" type="curve" smooth="yes"/>
      <point x="201" y="1428"/>
      <point x="200" y="1456"/>
      <point x="197" y="1484" type="curve"/>
      <point x="179" y="1482"/>
      <point x="140" y="1475"/>
      <point x="103" y="1475" type="curve" smooth="yes"/>
      <point x="61" y="1475"/>
      <point x="21" y="1484"/>
      <point x="21" y="1520" type="curve" smooth="yes"/>
      <point x="21" y="1533" type="line"/>
      <point x="44" y="1574" type="line"/>
      <point x="149" y="1583"/>
      <point x="254" y="1595"/>
      <point x="359" y="1595" type="curve" smooth="yes"/>
      <point x="381" y="1595"/>
      <point x="402" y="1591"/>
      <point x="424" y="1591" type="curve"/>
      <point x="463" y="1552" type="line"/>
      <point x="463" y="1547" type="line" smooth="yes"/>
      <point x="466" y="1574"/>
      <point x="511" y="1616"/>
      <point x="538" y="1616" type="curve" smooth="yes"/>
      <point x="565" y="1616"/>
      <point x="583" y="1594"/>
      <point x="599" y="1575" type="curve"/>
      <point x="596" y="1565"/>
      <point x="595" y="1554"/>
      <point x="595" y="1542" type="curve" smooth="yes"/>
      <point x="595" y="1433"/>
      <point x="681" y="1229"/>
      <point x="694" y="1129" type="curve"/>
      <point x="741" y="1259"/>
      <point x="777" y="1393"/>
      <point x="807" y="1528" type="curve" smooth="yes"/>
      <point x="818" y="1576"/>
      <point x="823" y="1639"/>
      <point x="887" y="1639" type="curve" smooth="yes"/>
      <point x="916" y="1639"/>
      <point x="943" y="1617"/>
      <point x="943" y="1587" type="curve" smooth="yes"/>
      <point x="943" y="1442"/>
      <point x="921" y="1298"/>
      <point x="921" y="1153" type="curve" smooth="yes"/>
      <point x="921" y="1031"/>
      <point x="935" y="908"/>
      <point x="935" y="786" type="curve"/>
      <point x="936" y="793" type="line"/>
      <point x="936" y="785" type="line" smooth="yes"/>
      <point x="936" y="728"/>
      <point x="934" y="625"/>
      <point x="859" y="625" type="curve" smooth="yes"/>
      <point x="830" y="625"/>
      <point x="805" y="642"/>
      <point x="805" y="673" type="curve" smooth="yes"/>
      <point x="805" y="752"/>
      <point x="817" y="829"/>
      <point x="817" y="908" type="curve" smooth="yes"/>
      <point x="817" y="985"/>
      <point x="811" y="1062"/>
      <point x="809" y="1139" type="curve"/>
      <point x="797" y="1102"/>
      <point x="778" y="1077"/>
      <point x="778" y="1036" type="curve"/>
      <point x="773" y="1027" type="line"/>
      <point x="769" y="981"/>
      <point x="747" y="845"/>
      <point x="685" y="845" type="curve" smooth="yes"/>
      <point x="597" y="845"/>
      <point x="572" y="1174"/>
      <point x="551" y="1254" type="curve"/>
      <point x="547" y="1168"/>
      <point x="547" y="1082"/>
      <point x="547" y="996" type="curve" smooth="yes"/>
      <point x="547" y="928"/>
      <point x="559" y="861"/>
      <point x="559" y="793" type="curve" smooth="yes"/>
      <point x="559" y="742"/>
      <point x="557" y="621"/>
      <point x="482" y="621" type="curve" smooth="yes"/>
      <point x="443" y="621"/>
      <point x="434" y="658"/>
      <point x="434" y="690" type="curve" smooth="yes"/>
      <point x="434" y="764"/>
      <point x="447" y="836"/>
      <point x="447" y="910" type="curve" smooth="yes"/>
      <point x="447" y="1002"/>
      <point x="445" y="1095"/>
      <point x="445" y="1189" type="curve" smooth="yes"/>
      <point x="445" y="1303"/>
      <point x="448" y="1417"/>
      <point x="460" y="1529" type="curve"/>
      <point x="450" y="1486"/>
      <point x="400" y="1485"/>
      <point x="364" y="1485" type="curve" smooth="yes"/>
      <point x="306" y="1487" type="line"/>
      <point x="302" y="1448"/>
      <point x="301" y="1408"/>
      <point x="301" y="1369" type="curve" smooth="yes"/>
      <point x="301" y="1206"/>
      <point x="314" y="1044"/>
      <point x="314" y="881" type="curve" smooth="yes"/>
      <point x="314" y="827"/>
      <point x="313" y="773"/>
      <point x="309" y="719" type="curve" smooth="yes"/>
      <point x="311" y="712"/>
      <point x="317" y="698"/>
      <point x="317" y="691" type="curve" smooth="yes"/>
      <point x="317" y="654"/>
      <point x="278" y="637"/>
      <point x="248" y="629" type="curve"/>
      <point x="194" y="657" type="line"/>
      <point x="204" y="688"/>
      <point x="205" y="723"/>
      <point x="205" y="757" type="curve" smooth="yes"/>
    </contour>
  </outline>
</glyph>
<glyph name="estimated" format="1">
  <advance width="914"/>
  <unicode hex="212E"/>
  <outline>
    <contour>
      <point x="253" y="857" type="line" smooth="yes"/>
      <point x="253" y="802"/>
      <point x="252" y="746"/>
      <point x="250" y="691" type="curve"/>
      <point x="510" y="691" type="line" smooth="yes"/>
      <point x="600" y="691"/>
      <point x="666" y="703"/>
      <point x="666" y="1027" type="curve" smooth="yes"/>
      <point x="666" y="1206"/>
      <point x="614" y="1320"/>
      <point x="501" y="1320" type="curve" smooth="yes"/>
      <point x="484" y="1320"/>
      <point x="466" y="1317"/>
      <point x="446" y="1312" type="curve" smooth="yes"/>
      <point x="309" y="1276"/>
      <point x="253" y="1105"/>
      <point x="253" y="865" type="curve" smooth="yes"/>
    </contour>
    <contour>
      <point x="784" y="991" type="curve" smooth="yes"/>
      <point x="784" y="933" type="line" smooth="yes"/>
      <point x="784" y="733"/>
      <point x="699" y="588"/>
      <point x="516" y="588" type="curve" smooth="yes"/>
      <point x="503" y="588" type="line" smooth="yes"/>
      <point x="247" y="598" type="line"/>
      <point x="246" y="550"/>
      <point x="245" y="492"/>
      <point x="245" y="444" type="curve" smooth="yes"/>
      <point x="245" y="221"/>
      <point x="322" y="68"/>
      <point x="465" y="68" type="curve" smooth="yes"/>
      <point x="528" y="68"/>
      <point x="595" y="103"/>
      <point x="691" y="165" type="curve" smooth="yes"/>
      <point x="696" y="170"/>
      <point x="703" y="172"/>
      <point x="709" y="172" type="curve" smooth="yes"/>
      <point x="732" y="172"/>
      <point x="759" y="147"/>
      <point x="759" y="122" type="curve" smooth="yes"/>
      <point x="759" y="117" type="line" smooth="yes"/>
      <point x="757" y="109"/>
      <point x="753" y="102"/>
      <point x="745" y="95" type="curve" smooth="yes"/>
      <point x="636" y="7"/>
      <point x="534" y="-33"/>
      <point x="449" y="-33" type="curve" smooth="yes"/>
      <point x="238" y="-33"/>
      <point x="127" y="196"/>
      <point x="127" y="476" type="curve" smooth="yes"/>
      <point x="127" y="819" type="line" smooth="yes"/>
      <point x="127" y="1219"/>
      <point x="273" y="1422"/>
      <point x="474" y="1422" type="curve" smooth="yes"/>
      <point x="702" y="1422"/>
      <point x="784" y="1265"/>
    </contour>
  </outline>
</glyph>
<glyph name="radical" format="1">
  <advance width="800"/>
  <unicode hex="221A"/>
  <outline>
    <contour>
      <point x="301" y="-11" type="line"/>
      <point x="273" y="102"/>
      <point x="244" y="214"/>
      <point x="217" y="326" type="curve" smooth="yes"/>
      <point x="207" y="365"/>
      <point x="161" y="519"/>
      <point x="161" y="541" type="curve" smooth="yes"/>
      <point x="161" y="556"/>
      <point x="188" y="582"/>
      <point x="208" y="582" type="curve" smooth="yes"/>
      <point x="259" y="582"/>
      <point x="270" y="502"/>
      <point x="306" y="361" type="curve" smooth="yes"/>
      <point x="354" y="176" type="line"/>
      <point x="410" y="488" type="line" smooth="yes"/>
      <point x="440" y="655"/>
      <point x="523" y="1051"/>
      <point x="568" y="1326" type="curve"/>
      <point x="606" y="1342" type="line"/>
      <point x="619" y="1343" type="line"/>
      <point x="632" y="1339"/>
      <point x="658" y="1324"/>
      <point x="658" y="1306" type="curve" smooth="yes"/>
      <point x="658" y="1251"/>
      <point x="637" y="1180"/>
      <point x="627" y="1127" type="curve" smooth="yes"/>
      <point x="602" y="1004"/>
      <point x="567" y="882"/>
      <point x="549" y="759" type="curve" smooth="yes"/>
      <point x="529" y="632"/>
      <point x="512" y="511"/>
      <point x="480" y="382" type="curve" smooth="yes"/>
      <point x="463" y="309"/>
      <point x="459" y="223"/>
      <point x="439" y="147" type="curve" smooth="yes"/>
      <point x="407" y="22"/>
      <point x="412" y="-39"/>
      <point x="343" y="-39" type="curve" smooth="yes"/>
      <point x="335" y="-39" type="line" smooth="yes"/>
    </contour>
  </outline>
</glyph>
<glyph name="infinity" format="1">
  <advance width="1364"/>
  <unicode hex="221E"/>
  <outline>
    <contour>
      <point x="586" y="745" type="curve"/>
      <point x="488" y="711"/>
      <point x="288" y="663"/>
      <point x="231" y="663" type="curve" smooth="yes"/>
      <point x="149" y="663"/>
      <point x="95" y="675"/>
      <point x="95" y="723" type="curve" smooth="yes"/>
      <point x="95" y="778"/>
      <point x="160" y="800"/>
      <point x="251" y="800" type="curve" smooth="yes"/>
      <point x="356" y="800"/>
      <point x="490" y="772"/>
    </contour>
    <contour>
      <point x="1264" y="737" type="curve" smooth="yes"/>
      <point x="1264" y="685"/>
      <point x="1210" y="665"/>
      <point x="1134" y="665" type="curve" smooth="yes"/>
      <point x="1013" y="665"/>
      <point x="873" y="707"/>
      <point x="772" y="745" type="curve"/>
      <point x="866" y="770"/>
      <point x="1052" y="801"/>
      <point x="1121" y="801" type="curve" smooth="yes"/>
      <point x="1203" y="801"/>
      <point x="1264" y="782"/>
    </contour>
    <contour>
      <point x="1336" y="727" type="line" smooth="yes"/>
      <point x="1336" y="852"/>
      <point x="1160" y="866"/>
      <point x="1053" y="866" type="curve" smooth="yes"/>
      <point x="943" y="866"/>
      <point x="844" y="832"/>
      <point x="777" y="814" type="curve" smooth="yes"/>
      <point x="760" y="809"/>
      <point x="717" y="794"/>
      <point x="682" y="783" type="curve"/>
      <point x="647" y="794"/>
      <point x="604" y="809"/>
      <point x="587" y="814" type="curve" smooth="yes"/>
      <point x="520" y="832"/>
      <point x="421" y="866"/>
      <point x="311" y="866" type="curve" smooth="yes"/>
      <point x="204" y="866"/>
      <point x="28" y="852"/>
      <point x="28" y="727" type="curve" smooth="yes"/>
      <point x="28" y="719" type="line" smooth="yes"/>
      <point x="28" y="618"/>
      <point x="129" y="588"/>
      <point x="206" y="588" type="curve" smooth="yes"/>
      <point x="373" y="588"/>
      <point x="530" y="664"/>
      <point x="682" y="708" type="curve"/>
      <point x="834" y="664"/>
      <point x="991" y="588"/>
      <point x="1158" y="588" type="curve" smooth="yes"/>
      <point x="1235" y="588"/>
      <point x="1336" y="618"/>
      <point x="1336" y="719" type="curve" smooth="yes"/>
    </contour>
  </outline>
</glyph>
<glyph name="notequal" format="1">
  <advance width="882"/>
  <unicode hex="2260"/>
  <outline>
    <component base="equal" xOffset="-21"/>
    <contour>
      <point x="534" y="1014" type="curve" smooth="yes"/>
      <point x="534" y="994"/>
      <point x="485" y="849"/>
      <point x="478" y="826" type="curve" smooth="yes"/>
      <point x="430" y="686"/>
      <point x="381" y="547"/>
      <point x="333" y="407" type="curve" smooth="yes"/>
      <point x="328" y="390"/>
      <point x="318" y="383"/>
      <point x="307" y="383" type="curve" smooth="yes"/>
      <point x="295" y="383"/>
      <point x="285" y="394"/>
      <point x="285" y="408" type="curve" smooth="yes"/>
      <point x="285" y="410"/>
      <point x="285" y="413"/>
      <point x="286" y="416" type="curve" smooth="yes"/>
      <point x="347" y="598"/>
      <point x="409" y="780"/>
      <point x="475" y="958" type="curve" smooth="yes"/>
      <point x="479" y="970"/>
      <point x="499" y="1038"/>
      <point x="512" y="1038" type="curve" smooth="yes"/>
      <point x="524" y="1038"/>
      <point x="534" y="1029"/>
    </contour>
  </outline>
</glyph>
<glyph name="lozenge" format="1">
  <advance width="712"/>
  <unicode hex="25CA"/>
  <outline>
    <contour>
      <point x="446" y="516" type="line"/>
      <point x="434" y="442"/>
      <point x="381" y="238"/>
      <point x="352" y="127" type="curve"/>
      <point x="306" y="307"/>
      <point x="252" y="516"/>
      <point x="210" y="672" type="curve"/>
      <point x="222" y="734"/>
      <point x="269" y="880"/>
      <point x="298" y="1032" type="curve" smooth="yes"/>
      <point x="309" y="1104"/>
      <point x="324" y="1180"/>
      <point x="347" y="1248" type="curve"/>
      <point x="391" y="1055"/>
      <point x="424" y="902"/>
      <point x="494" y="697" type="curve"/>
    </contour>
    <contour>
      <point x="590" y="704" type="curve" smooth="yes"/>
      <point x="549" y="854"/>
      <point x="497" y="1008"/>
      <point x="477" y="1102" type="curve" smooth="yes"/>
      <point x="454" y="1206"/>
      <point x="424" y="1330"/>
      <point x="413" y="1380" type="curve"/>
      <point x="377" y="1398" type="line" smooth="yes"/>
      <point x="374" y="1398"/>
      <point x="371" y="1399"/>
      <point x="368" y="1399" type="curve" smooth="yes"/>
      <point x="318" y="1399"/>
      <point x="288" y="1333"/>
      <point x="267" y="1265" type="curve" smooth="yes"/>
      <point x="250" y="1212"/>
      <point x="222" y="1162"/>
      <point x="211" y="1111" type="curve" smooth="yes"/>
      <point x="194" y="1022"/>
      <point x="176" y="936"/>
      <point x="155" y="852" type="curve" smooth="yes"/>
      <point x="142" y="798"/>
      <point x="133" y="742"/>
      <point x="115" y="693" type="curve" smooth="yes"/>
      <point x="113" y="687"/>
      <point x="112" y="683"/>
      <point x="112" y="678" type="curve" smooth="yes"/>
      <point x="112" y="674"/>
      <point x="113" y="670"/>
      <point x="114" y="665" type="curve" smooth="yes"/>
      <point x="155" y="515"/>
      <point x="199" y="365"/>
      <point x="219" y="271" type="curve" smooth="yes"/>
      <point x="242" y="167"/>
      <point x="280" y="39"/>
      <point x="291" y="-11" type="curve"/>
      <point x="327" y="-29" type="line" smooth="yes"/>
      <point x="330" y="-29"/>
      <point x="333" y="-30"/>
      <point x="336" y="-30" type="curve" smooth="yes"/>
      <point x="386" y="-30"/>
      <point x="416" y="36"/>
      <point x="437" y="104" type="curve" smooth="yes"/>
      <point x="463" y="191"/>
      <point x="523" y="455"/>
      <point x="539" y="521" type="curve" smooth="yes"/>
      <point x="553" y="574"/>
      <point x="571" y="627"/>
      <point x="589" y="676" type="curve" smooth="yes"/>
      <point x="591" y="682"/>
      <point x="592" y="686"/>
      <point x="592" y="691" type="curve" smooth="yes"/>
      <point x="592" y="695"/>
      <point x="591" y="699"/>
    </contour>
  </outline>
</glyph>
